<?xml version="1.0" encoding="utf-8"?>
<!-- Generator: Adobe Illustrator 23.0.3, SVG Export Plug-In . SVG Version: 6.00 Build 0)  -->
<svg version="1.1" id="Слой_1" xmlns="http://www.w3.org/2000/svg" xmlns:xlink="http://www.w3.org/1999/xlink" x="0px" y="0px"
	 viewBox="0 0 497 338" style="enable-background:new 0 0 497 338;" xml:space="preserve">
<style type="text/css">
	.st0{fill:#BE1622;}
	.st1{fill:url(#SVGID_1_);}
	.st2{fill:url(#SVGID_2_);}
	.st3{fill:url(#SVGID_3_);}
	.st4{fill:url(#SVGID_4_);}
	.st5{fill:url(#SVGID_5_);}
	.st6{fill:url(#SVGID_6_);}
	.st7{fill:url(#SVGID_7_);}
	.st8{fill:url(#SVGID_8_);}
	.st9{fill:url(#SVGID_9_);}
	.st10{fill:url(#SVGID_10_);}
	.st11{fill:url(#SVGID_11_);}
	.st12{fill:url(#SVGID_12_);}
	.st13{fill:url(#SVGID_13_);}
	.st14{fill:url(#SVGID_14_);}
	.st15{fill:url(#SVGID_15_);}
	.st16{fill:url(#SVGID_16_);}
</style>
<path class="st0" d="M154.4,152.3c3.8,13.2-49.2,46.4-69.9,12.3c-8.4-7.1-37.6-30.9-39.7-44.9c-1.6-10.4,24.5,5.1,31.3-3.7
	c6.8-8.7,27.6,5.2,35.6-2.1c8-7.3-5.4-40.8-1.5-51.3c3.9-10.5-45.3-49-52.8-54.6c2.7,8.6,39.8,53.4,32.4,59.2
	c-7.4,5.8,10,22.1,2.1,26.9c-18,10.7-59.2-5.2-61.3,16.6c-0.9,9.2,1.7,42.2,1.4,51.4c-0.3,9.2-2,19-7.4,26.7
	c-5.4,7.7-15.2,12.3-22,8.2c-6-3.6-7.8-13.1-5.3-21.1c2.4-8,23.8-20.4,4.7-38.3c3.9,8.8-2.1,20.9-10,27.4
	c-7.9,6.6-17.3,9.5-25.9,14.4c-15.1,8.6-27.7,23.5-34.6,40.7c-6.9,17.2-7.8,36.5-2.7,52.7c3.4,10.5,9.2,19.5,15.8,27.5
	c22.6,27,56.9,42.1,92.3,36.4c13.2-2.1,26.7-7.2,37.6-17.1C86.2,309,94.2,293.2,97,277.3c2.8-15.9,1.7-36.7-8.9-46.1
	c3.4,8.2-1.4,20.2-9.3,24.7c-8,4.5-17.7,1.6-22-5.9c-4.4-7.5-17.9-89.2-12.9-97.7c8.6-14.8,40.2,50.9,52,39
	C129.4,200.6,170.4,178.3,154.4,152.3z"/>
<radialGradient id="SVGID_1_" cx="-56.9548" cy="567.112" r="1" gradientTransform="matrix(-200.8262 59.4188 59.4188 200.8262 -45059.3828 -110312.5469)" gradientUnits="userSpaceOnUse">
	<stop  offset="0" style="stop-color:#FFD034"/>
	<stop  offset="0.99" style="stop-color:#FFA30F"/>
</radialGradient>
<path class="st1" d="M104.5,191.8c0,0,39,32.2,6.1,65.3c-32.9,33.1-71.8,88.6-24.5,125.8c47.3,37.2,138.3,1.1,98.9-90.9
	c0,0-9.7,22.2-25.5,33.7C159.6,325.7,213.9,241.8,104.5,191.8z"/>
<radialGradient id="SVGID_2_" cx="-56.8481" cy="567.2802" r="1" gradientTransform="matrix(-168.885 64.5652 64.5652 168.885 -46151.8984 -91909.1563)" gradientUnits="userSpaceOnUse">
	<stop  offset="0" style="stop-color:#FFAB09"/>
	<stop  offset="0.99" style="stop-color:#FF811D"/>
</radialGradient>
<path class="st2" d="M153.3,391.9c15.7-6,27.4-17.3,32.9-31.8c5.8-15.3,4.5-33.5-3.5-53.3c-4.1,8.1-10.5,18.4-19.1,25.8
	c-0.5,0.4-1.1,0.8-1.7,1c-1.9,0.7-4.1,0.4-5.8-0.9c-2.2-1.8-2.8-4.9-1.5-7.3c0.2-0.3,17.2-32.5,4.7-65.3c-6.8-18-21.1-33-42.6-44.8
	c2.7,4.9,4.8,10.4,5.6,16.5c1.6,12.3-2.5,24.3-12.1,35.6c-16.1,18.9-42.4,55.2-38.1,85.9c1.9,13.3,9.1,24,22.3,32.8
	C110.9,397.2,133.6,399.4,153.3,391.9z"/>
<radialGradient id="SVGID_3_" cx="-57.1227" cy="567.5172" r="1" gradientTransform="matrix(-151.0148 25.3579 25.3579 151.0148 -22916.2832 -84011.5625)" gradientUnits="userSpaceOnUse">
	<stop  offset="0" style="stop-color:#FF7909"/>
	<stop  offset="0.99" style="stop-color:#BE1622"/>
</radialGradient>
<path class="st3" d="M138.1,394.3c1.5-0.3,2.9-0.6,4.4-0.9c14.1-3.5,25.3-11.9,31.4-23.6c4.6-8.8,6.4-19.4,5.3-31.4
	c-3.9,4.1-8.3,8.2-13.2,11.5c-1.3,0.9-2.7,1.5-4.3,1.9c-0.3,0.1-0.7,0.2-1,0.2c-4.4,0.7-8.9-0.7-12.1-4c-4.6-4.7-5.1-12-1.3-17.4
	c0.1-0.2,18.8-27.6,11.3-57.9c-2.8-11.3-8.8-21.8-18-31.5c-0.7,13.5-7,25.8-18.8,36.7c-13.9,12.8-46.2,45.8-45.8,74.8
	c0.2,11.2,5.1,20.6,15.4,29.5C103.8,392.5,121.2,397.1,138.1,394.3L138.1,394.3z"/>
<radialGradient id="SVGID_4_" cx="-56.9548" cy="567.112" r="1" gradientTransform="matrix(-200.8262 59.4188 59.4188 200.8262 -45059.3672 -110312.5547)" gradientUnits="userSpaceOnUse">
	<stop  offset="0" style="stop-color:#FFD034"/>
	<stop  offset="0.99" style="stop-color:#FFA30F"/>
</radialGradient>
<path class="st4" d="M92.8,193.4c0,0,23.4,24.4,0.6,53.5c-22.9,29.1-54.7,66-39.2,108.2c0,0-43.8-23.7-28.2-69.5
	C41.5,239.9,89.4,243.4,92.8,193.4z"/>
<radialGradient id="SVGID_5_" cx="-56.8166" cy="567.3789" r="1" gradientTransform="matrix(-155.6471 62.0402 62.0402 155.6471 -43972.8164 -84566.3125)" gradientUnits="userSpaceOnUse">
	<stop  offset="0" style="stop-color:#FFAB09"/>
	<stop  offset="0.99" style="stop-color:#FF811D"/>
</radialGradient>
<path class="st5" d="M50.1,350.6c-7.6-35.4,14-68.6,31.8-96l3.2-4.9c9.1-14,7.5-25.8,3.9-34c-4.1,19.2-16.3,30.5-28.2,41.5
	c-12.3,11.3-23.9,22-28.6,41.8C25.9,325,39,341.6,50.1,350.6z"/>
<radialGradient id="SVGID_6_" cx="-56.7579" cy="564.9526" r="1" gradientTransform="matrix(216.7802 -4.308 -4.308 -216.7802 15160.666 122410.5156)" gradientUnits="userSpaceOnUse">
	<stop  offset="0" style="stop-color:#FFD034"/>
	<stop  offset="0.99" style="stop-color:#FFA30F"/>
</radialGradient>
<path class="st6" d="M413.9,251c0,0-46.2,47.4-22.6,101c23.6,53.5,104.8,47.1,125.2,4.4c20.3-42.8-6.8-59.8,0.2-91.5
	c0,0-16.6,12.1-19.5,27.4c0,0,8.8-15.7,2.9-38.8c-5.9-23.1-46.2-53.1-104-40.3c0,0,60.9,0.8,72.1,48.5
	c11.2,47.6-48.1,42.7-56.9,27.8C402,273.7,409.3,258.6,413.9,251L413.9,251z"/>
<radialGradient id="SVGID_7_" cx="-56.7579" cy="564.9526" r="1" gradientTransform="matrix(216.7802 -4.308 -4.308 -216.7802 15160.665 122410.5156)" gradientUnits="userSpaceOnUse">
	<stop  offset="0" style="stop-color:#FFD034"/>
	<stop  offset="0.99" style="stop-color:#FFA30F"/>
</radialGradient>
<path class="st7" d="M378.7,300.2c0,0-1.6-10.9,9.5-38.5c11.1-27.6-8.4-42.2-8.4-42.2s5.4,11.5-5,28.8
	C364.3,265.6,361.2,282.8,378.7,300.2L378.7,300.2z"/>
<radialGradient id="SVGID_8_" cx="-56.6545" cy="564.5054" r="1" gradientTransform="matrix(151.905 -3.0188 -3.0188 -151.905 10719.1357 85788.6328)" gradientUnits="userSpaceOnUse">
	<stop  offset="0" style="stop-color:#FFAB09"/>
	<stop  offset="0.99" style="stop-color:#FF811D"/>
</radialGradient>
<path class="st8" d="M375.3,289.8c-7.5-11.5-6.5-23.7,2.9-39.4c4-6.6,5.9-12.6,6.6-17.5c2.8,6.3,4.2,15.4-0.5,27.3
	C379,273.6,376.4,283.3,375.3,289.8z"/>
<radialGradient id="SVGID_9_" cx="-56.7014" cy="564.7085" r="1" gradientTransform="matrix(175.7963 -3.4936 -3.4936 -175.7963 12372.2422 99298.9844)" gradientUnits="userSpaceOnUse">
	<stop  offset="0" style="stop-color:#FFAB09"/>
	<stop  offset="0.99" style="stop-color:#FF811D"/>
</radialGradient>
<path class="st9" d="M450.1,384.6c18.5,0.8,63.2-20.7,51.2-56.4c0,0-9,11.5-15.2,10.6c0,0,33.1-38.1-20.6-107.8
	c0,0,36.3,73.1-4.5,85.7c-41.5,12.8-59.5-2.9-57.9-23.5C403.1,293.2,376.8,381.3,450.1,384.6L450.1,384.6z"/>
<radialGradient id="SVGID_10_" cx="-56.2658" cy="562.8242" r="1" gradientTransform="matrix(71.4902 -1.4207 -1.4207 -71.4902 5267.9844 40479.8242)" gradientUnits="userSpaceOnUse">
	<stop  offset="0" style="stop-color:#FF7909"/>
	<stop  offset="0.99" style="stop-color:#FF391D"/>
</radialGradient>
<path class="st10" d="M446.9,379.5c10.9,0.9,26.7,0.5,37.5-22.3c0,0-9.6,7.9-14.3,3.9c0,0,13-15.6,9.6-35.1c0,0-31.2,29.8-60.9,4.8
	C418.7,330.9,407.5,376.2,446.9,379.5z"/>
<path class="st0" d="M447.7,191.8c9.6,2.4,17.9,13.5,17.1,23.4c-0.8,9.9-10.9,16.3-20.3,12.6c-7-2.8-12.3-10.1-15.2-17.4
	c-2.9-7.4-3.9-15.1-5.4-22.7s-4-15.5-9-21.7c-5.1-6.2-13.4-10.2-19.6-7.6c6.3,1.5,14.1,15.2,15,21.9c0.9,6.7-0.6,13.1-0.6,19.7
	c0,15,8.5,31.2,21.2,40.5c5.4,3.9,11.3,6.6,16.9,10.1c5.6,3.5,11,8.1,13.8,14.3c2.8,6.1,2,13.9-3,16.6c-4.5,2.4-10.9,0.1-15-4.4
	s-3.9-22.1-22-16.8c6.8,0.8,12.1,8.9,13.3,16.1c1.2,7.3-0.4,14.1-0.6,21.3c-0.2,12.4,4.4,25.7,12.5,36.2
	c8.1,10.5,19.7,18.1,31.6,20.8c7.7,1.7,15.4,1.4,22.8,0.2c25-4.2,46.8-19.9,56.2-43.9c3.5-8.9,5.3-19.1,3.2-29.5
	c-2.3-11.1-9.1-21.8-18-29.3c-8.8-7.5-22.1-14.4-31.8-11.2c6.3,0.9,12,8.2,11.9,14.7c-0.1,6.6-5.5,11.5-11.7,11.5
	c-6.2,0-12.8-4.6-16.2-10.8c-6-10.7-2.7-23.1-5.7-34.7C484.9,205.2,469.7,191.3,447.7,191.8z"/>
<radialGradient id="SVGID_11_" cx="-57.5548" cy="564.1361" r="1" gradientTransform="matrix(125.5448 -90.4359 -67.9529 -94.3334 45984.9688 48093.1523)" gradientUnits="userSpaceOnUse">
	<stop  offset="0" style="stop-color:#FFAB09"/>
	<stop  offset="0.99" style="stop-color:#FF811D"/>
</radialGradient>
<path class="st11" d="M431.6,152.3c-11.2-2.9-15.6-11.2-14.5-26.6c0.5-6.5-0.5-11.4-2-14.9c5,2.3,10.2,7.3,11.3,17.6
	C427.6,140,429.7,147.5,431.6,152.3z"/>
<radialGradient id="SVGID_12_" cx="-55.9118" cy="564.1628" r="1" gradientTransform="matrix(104.6698 30.9686 30.9686 -104.6698 -11257.5957 61050.7891)" gradientUnits="userSpaceOnUse">
	<stop  offset="0" style="stop-color:#FFD034"/>
	<stop  offset="0.99" style="stop-color:#FFA30F"/>
</radialGradient>
<path class="st12" d="M346.5,267.2c0,0-20.3,16.8-3.2,34c17.1,17.3,37.4,46.2,12.8,65.6c-24.6,19.4-72.1,0.6-51.5-47.4
	c0,0,5.1,11.6,13.3,17.6C317.8,337,289.5,293.3,346.5,267.2z"/>
<radialGradient id="SVGID_13_" cx="-55.5786" cy="563.9759" r="1" gradientTransform="matrix(88.0221 33.6509 33.6509 -88.0221 -13724.541 51797.418)" gradientUnits="userSpaceOnUse">
	<stop  offset="0" style="stop-color:#FFAB09"/>
	<stop  offset="0.99" style="stop-color:#FF811D"/>
</radialGradient>
<path class="st13" d="M321.1,371.5c-8.2-3.1-14.3-9-17.1-16.6c-3-8-2.4-17.5,1.8-27.8c2.1,4.2,5.5,9.6,10,13.5
	c0.3,0.2,0.6,0.4,0.9,0.5c1,0.4,2.1,0.2,3-0.5c1.1-0.9,1.5-2.5,0.8-3.8c-0.1-0.2-8.9-17-2.4-34.1c3.6-9.4,11-17.2,22.2-23.4
	c-1.4,2.5-2.5,5.4-2.9,8.6c-0.8,6.4,1.3,12.6,6.3,18.5c8.4,9.9,22.1,28.8,19.9,44.8c-1,6.9-4.8,12.5-11.6,17.1
	C343.1,374.3,331.3,375.4,321.1,371.5z"/>
<radialGradient id="SVGID_14_" cx="-55.8267" cy="563.3256" r="1" gradientTransform="matrix(78.7081 13.2163 13.2163 -78.7081 -2702.8066 45370.2383)" gradientUnits="userSpaceOnUse">
	<stop  offset="0" style="stop-color:#FF7909"/>
	<stop  offset="0.99" style="stop-color:#BE1622"/>
</radialGradient>
<path class="st14" d="M329,372.8c-0.8-0.1-1.5-0.3-2.3-0.5c-7.4-1.8-13.2-6.2-16.4-12.3c-2.4-4.6-3.3-10.1-2.8-16.4
	c2,2.2,4.3,4.3,6.9,6c0.7,0.4,1.4,0.8,2.2,1c0.2,0.1,0.4,0.1,0.5,0.1c2.3,0.4,4.7-0.4,6.3-2.1c2.4-2.5,2.7-6.3,0.7-9.1
	c-0.1-0.1-9.8-14.4-5.9-30.2c1.4-5.9,4.6-11.4,9.4-16.4c0.4,7,3.7,13.5,9.8,19.1c7.3,6.7,24.1,23.9,23.8,39
	c-0.1,5.8-2.7,10.7-8,15.4C346.9,371.8,337.8,374.2,329,372.8L329,372.8z"/>
<radialGradient id="SVGID_15_" cx="-55.9118" cy="564.1628" r="1" gradientTransform="matrix(104.6698 30.9686 30.9686 -104.6698 -11257.6045 61050.7813)" gradientUnits="userSpaceOnUse">
	<stop  offset="0" style="stop-color:#FFD034"/>
	<stop  offset="0.99" style="stop-color:#FFA30F"/>
</radialGradient>
<path class="st15" d="M352.6,268.1c0,0-12.2,12.7-0.3,27.9c11.9,15.2,28.5,34.4,20.4,56.4c0,0,22.8-12.4,14.7-36.2
	C379.3,292.3,354.4,294.1,352.6,268.1z"/>
<radialGradient id="SVGID_16_" cx="-55.4355" cy="563.8377" r="1" gradientTransform="matrix(81.1226 32.3349 32.3349 -81.1226 -13370.5479 47814.2383)" gradientUnits="userSpaceOnUse">
	<stop  offset="0" style="stop-color:#FFAB09"/>
	<stop  offset="0.99" style="stop-color:#FF811D"/>
</radialGradient>
<path class="st16" d="M374.8,350c4-18.5-7.3-35.8-16.6-50l-1.6-2.5c-4.7-7.3-3.9-13.5-2-17.7c2.1,10,8.5,15.9,14.7,21.6
	c6.4,5.9,12.5,11.5,14.9,21.8C387.5,336.7,380.6,345.3,374.8,350z"/>
</svg>
