<svg width="57" height="48" viewBox="0 0 57 48" fill="none" xmlns="http://www.w3.org/2000/svg">
<path d="M0.748707 25.0532C0.934033 24.9557 1.10083 25.0595 1.2738 25.0968C1.84419 25.2214 2.41046 25.3688 2.98497 25.4602C3.76334 25.5826 4.53553 25.5266 5.32007 25.3854C6.17874 25.2318 7.06213 25.2276 7.93522 25.157C10.1529 24.9743 12.3624 24.7294 14.5678 24.42C16.4087 24.1626 18.2434 23.8553 20.0699 23.5107C20.4159 23.4463 20.5888 23.2969 20.7474 22.9834C21.3281 21.8415 21.5814 20.5959 21.9396 19.3855C23.3152 14.7205 24.7319 10.068 26.3113 5.46733C26.4904 4.94415 26.7334 4.45212 26.9723 3.95593C27.0114 3.87289 27.0464 3.75247 27.1123 3.72548C27.5385 3.55524 27.658 3.23552 27.6353 2.80577C27.6271 2.65006 27.8659 2.58571 28.0163 2.7165C28.1213 2.80785 28.1769 2.9947 28.354 2.89089C28.4796 2.81615 28.4137 2.65422 28.4322 2.53173C28.459 2.33657 28.529 2.18709 28.737 2.12066C29.2991 1.93589 29.3836 1.47707 29.3588 0.968426C29.3444 0.679848 29.2477 0.393346 29.2991 0.100616C29.9107 0.108921 29.9601 0.14629 30.0981 0.696456C30.1166 0.767044 30.1372 0.837631 30.1496 0.910294C30.1763 1.05562 30.1969 1.20095 30.374 1.25285C30.5758 1.31098 30.6026 1.1532 30.687 1.03486C30.8291 0.839707 31.3295 0.978806 31.4468 1.24247C31.5066 1.37534 31.5354 1.52274 31.5786 1.66184C32.3529 4.20921 32.9542 6.80226 33.5493 9.39738C33.6069 9.64859 33.6913 9.88527 33.8087 10.1178C34.0785 10.6472 34.2288 11.214 34.2185 11.814C34.2185 11.9323 34.2576 12.0901 34.0888 12.1378C33.9076 12.1877 33.8231 12.0548 33.7614 11.9157C33.541 11.432 33.3269 10.9441 33.1107 10.4583C32.9397 10.0742 32.7585 9.69842 32.4497 9.40569C32.2479 9.46797 32.2355 9.61953 32.2129 9.7607C32.1737 10.0015 32.1861 10.2465 32.2623 10.4707C32.6473 11.5877 32.7318 12.771 32.9974 13.9129C33.4237 15.7544 33.8334 17.6021 34.2494 19.4457C34.2741 19.5537 34.2988 19.6595 34.3276 19.7675C34.3523 19.8547 34.377 19.9523 34.4882 19.9606C34.5912 19.9668 34.6509 19.8858 34.7045 19.8132C34.8259 19.6492 34.896 19.4582 34.9557 19.2651C35.1328 18.7025 35.2295 18.1232 35.2954 17.5378C35.3099 17.4007 35.2625 17.2409 35.4066 17.1246C35.6434 17.162 35.7073 17.3758 35.802 17.5378C36.1335 18.0942 36.3209 18.7108 36.4898 19.3315C36.6483 19.9149 36.7842 20.5066 36.9263 21.0962C37.0622 21.6547 37.0622 21.6713 37.6511 21.6214C38.5057 21.5488 39.3582 21.4554 40.2086 21.3599C42.0392 21.1543 43.8678 20.9467 45.6984 20.7329C46.6044 20.627 47.5063 20.5004 48.4124 20.3986C49.4275 20.2844 50.4448 20.2014 51.4579 20.081C52.8149 19.9211 54.1698 19.7322 55.5268 19.5744C55.9942 19.5204 56.4576 19.4042 56.9497 19.4353C56.9703 19.7737 56.7252 19.8588 56.5132 19.9253C56.1672 20.0332 55.8069 20.108 55.4506 20.1744C54.9811 20.2616 54.5363 20.3841 54.1245 20.6519C53.8877 20.8055 53.585 20.8678 53.305 20.9405C53.0764 21.0007 52.9961 21.09 53.1052 21.3266C53.1938 21.5156 53.4223 21.7149 53.2885 21.9142C53.1464 22.128 52.8478 22.1384 52.5966 22.1924C52.0571 22.3107 51.5073 22.3003 50.9616 22.3356C50.698 22.3522 50.4983 22.4394 50.4098 22.6948C50.3089 22.9854 50.0906 23.1162 49.8229 23.22C49.6273 23.2948 49.4049 23.3508 49.2402 23.5813C50.8484 23.9882 52.3989 24.4989 54.1019 24.7107C53.7827 25.0242 53.4573 25.0844 53.1464 25.1612C51.7976 25.4954 50.4201 25.6719 49.0425 25.7965C47.8955 25.9003 46.7691 26.1287 45.6345 26.303C44.1025 26.5376 42.5684 26.7494 41.0282 26.9176C39.9018 27.0421 38.7878 27.2124 37.7026 27.5487C37.2187 27.6982 37.2064 27.7127 37.3196 28.2006C38.0836 31.5473 38.8455 34.8939 39.6176 38.2406C39.9059 39.4925 40.2313 40.7361 40.5175 41.988C40.6369 42.5153 40.849 42.9949 41.092 43.4703C41.4029 44.0744 41.6953 44.6869 41.996 45.2931C42.0825 45.4675 42.1051 45.6274 41.8539 45.6461C41.5986 45.6647 41.4112 45.7125 41.3432 46.0177C41.2835 46.298 41.3906 46.4723 41.5739 46.6426C41.5986 46.6654 41.6068 46.7069 41.6397 46.7734C41.4812 46.9644 41.127 47.0703 41.2362 47.444C41.2609 47.527 41.1497 47.5519 41.0776 47.5436C40.9891 47.5332 40.8923 47.5187 40.8161 47.4751C40.4784 47.2758 40.1736 47.1575 39.9121 47.6017C39.8236 47.7512 39.6465 47.7242 39.5641 47.554C39.4035 47.226 39.1626 47.1637 38.8413 47.2882C38.6457 47.363 38.5263 47.2633 38.4583 47.0869C38.3533 46.819 38.205 46.736 37.9106 46.8481C37.6141 46.9623 37.264 47.2114 36.9881 47.0287C36.741 46.8647 36.8378 46.4516 36.7698 46.1505C36.6483 45.617 36.5804 45.5651 36.0161 45.6564C35.3716 45.7602 35.3037 45.7083 35.1884 45.044C35.1307 44.7118 34.9337 44.5104 34.5974 44.4398C34.5253 44.4253 34.4553 44.4045 34.3853 44.3859C34.075 44.3097 34.0284 44.1416 34.2453 43.8814C34.4862 43.5928 34.4553 43.4392 34.1382 43.2212C31.8957 41.6786 29.4412 40.5575 26.929 39.5548C25.2178 38.8717 23.484 38.2427 21.8182 37.4538C21.4846 37.296 21.1407 37.3375 20.7968 37.3271C20.5909 37.3209 20.5291 37.4911 20.4612 37.6406C20.2594 38.0745 20.0864 38.523 19.9979 38.9922C19.9072 39.4655 19.7384 39.8994 19.5448 40.3375C19.1804 41.1575 18.8756 42.0067 18.542 42.8392C18.3711 43.2668 18.1611 43.6738 17.8975 44.0516C17.7698 44.2343 17.6298 44.4066 17.4383 44.5187C17.1809 44.6724 17.0079 44.799 16.8617 44.3693C16.8432 44.3174 16.8144 44.2696 16.7958 44.2177C16.7567 44.1035 16.6888 44.0288 16.559 44.0288C16.4252 44.0288 16.3737 44.116 16.3346 44.2281C16.244 44.4876 16.1513 44.7471 16.0504 45.0025C15.9639 45.2205 15.8445 45.2952 15.5871 45.1893C15.1506 45.0087 15.1382 45.0315 14.9199 45.4551C14.7346 45.8142 14.5575 46.1755 14.3063 46.4973C14.123 46.7319 13.9027 46.9187 13.6329 47.0474C13.46 47.1305 13.355 47.0806 13.3097 46.8959C13.2376 46.6031 13.2623 46.3312 13.3858 46.0405C14.1354 44.3028 14.7243 42.507 15.1773 40.6676C15.2247 40.4724 15.2597 40.271 15.3091 40.0759C15.4553 39.507 15.4141 38.9942 14.9467 38.5686C14.7778 38.415 14.6337 38.2178 14.5122 37.9313C14.9076 37.9001 15.2679 37.9541 15.62 37.8877C15.8795 37.8378 16.0339 37.732 16.1245 37.4704C16.3161 36.914 16.5364 36.368 16.6476 35.7887C16.7526 35.2386 16.7155 35.1867 16.2193 34.9479C14.7964 34.267 13.3241 33.7376 11.7632 33.4884C11.059 33.3763 10.3527 33.3078 9.64021 33.3016C9.35811 33.3016 9.10071 33.3846 8.8392 33.4635C8.24409 33.64 7.65517 33.8331 7.06419 34.0158C6.97976 34.0427 6.83562 34.0926 6.80885 34.0593C6.66883 33.8891 6.46909 33.7895 6.33524 33.6234C6.18286 33.4365 6.32495 33.2746 6.43408 33.1313C6.56587 32.9569 6.71619 32.7971 6.86239 32.6331C6.94682 32.5376 7.04772 32.4628 6.97976 32.303C6.90975 32.141 6.79856 32.0995 6.63588 32.0974C6.10256 32.0933 5.58158 32.1846 5.05856 32.2635C4.69614 32.3175 4.33579 32.3341 3.9569 32.3092C3.92395 32.0538 4.08663 31.8753 4.11957 31.6656C4.19164 31.2089 4.07221 31.0739 3.63361 31.1777C3.37003 31.24 3.1147 31.3355 2.82229 31.4248C2.71934 31.2234 2.79141 31.0282 2.79758 30.8393C2.80994 30.3328 2.73993 30.2767 2.21896 30.3722C2.0048 30.4116 1.78859 30.4615 1.57238 30.476C1.09053 30.5071 1.0061 30.3784 1.21408 29.9487C1.29439 29.7826 1.37264 29.6165 1.47354 29.4629C1.62591 29.2324 1.56414 29.056 1.37881 28.8836C1.21614 28.7321 1.03287 28.6179 0.845489 28.5016C0.458364 28.265 0.452187 27.9515 0.81666 27.694C0.981394 27.5778 1.1626 27.4968 1.34999 27.42C1.59915 27.3183 1.61562 27.1397 1.38499 26.9944C1.24909 26.9072 1.08435 26.8677 0.934033 26.8013C0.835193 26.7577 0.736352 26.7058 0.705465 26.5979C0.691051 26.5086 0.752826 26.4878 0.802246 26.4837C1.37675 26.4442 1.38293 26.3529 1.14613 25.8401C1.02258 25.5743 0.886672 25.3148 0.754885 25.0512H0.74253L0.748707 25.0532ZM28.2778 10.3358C28.2675 9.90603 28.2037 9.50742 28.041 9.13372C27.9565 8.94064 27.903 8.63753 27.6662 8.64376C27.3944 8.64999 27.4232 8.97178 27.3697 9.17109C26.1342 13.724 24.6433 18.1917 22.9548 22.5951C22.9095 22.7156 22.8539 22.8339 22.8272 22.9585C22.7345 23.3778 22.9631 23.6373 23.377 23.5917C24.1018 23.5128 24.598 23.0643 24.7998 22.3439C24.9872 21.6734 25.1911 21.0048 25.4011 20.3426C25.9056 18.7523 26.5151 17.1931 26.8981 15.5675C27.1679 14.4236 27.4685 13.2942 27.8948 12.198C28.1295 11.598 28.249 10.9648 28.2757 10.3399L28.2778 10.3358ZM31.9019 32.1348C31.8937 32.0663 31.8916 32.031 31.8855 31.9936C31.7022 30.8165 31.521 29.6393 31.3315 28.4643C31.2636 28.047 31.2389 28.0428 30.7859 28.0698C28.9511 28.184 27.1226 28.375 25.2961 28.5826C24.7545 28.6449 24.215 28.7321 23.6755 28.8131C23.5582 28.8317 23.3914 28.8193 23.3852 28.9916C23.379 29.1535 23.5417 29.1701 23.6529 29.22C23.7352 29.2573 23.8217 29.2885 23.9082 29.3175C24.4745 29.5189 25.0552 29.685 25.6029 29.9279C26.1033 30.1501 26.5522 30.2725 26.9784 29.8096C27.0134 29.7722 27.0732 29.7556 27.1226 29.7307C27.2914 29.6456 27.4315 29.6497 27.5365 29.8366C27.8948 30.4698 28.4816 30.8455 29.0973 31.1715C29.8057 31.5473 30.5264 31.8981 31.2409 32.2635C31.3748 32.332 31.5127 32.3632 31.661 32.3673C31.8504 32.3736 31.9287 32.2864 31.904 32.1307L31.9019 32.1348ZM28.249 22.8567C28.249 22.8443 28.249 22.8297 28.249 22.8173C28.702 22.7903 29.157 22.7488 29.6101 22.7384C29.8922 22.7322 29.9354 22.6242 29.8839 22.3626C29.6512 21.1958 29.4371 20.0249 29.2209 18.8561C29.12 18.3163 29.0294 17.7744 28.9326 17.2347C28.9058 17.0893 28.877 16.9295 28.6814 16.9336C28.5311 16.9357 28.3931 16.9876 28.3334 17.1495C28.3148 17.2014 28.2984 17.2533 28.2798 17.3052C27.7877 18.6651 27.3038 20.027 26.927 21.4242C26.8364 21.7605 26.7519 22.099 26.7272 22.4477C26.7025 22.8235 26.7375 22.8609 27.102 22.8609C27.4829 22.8609 27.8659 22.8609 28.2469 22.8609L28.249 22.8567ZM22.5162 34.1445C22.1806 34.1528 21.9932 34.3147 21.9417 34.6303C21.847 35.2116 21.9664 35.4213 22.5245 35.6247C22.7468 35.7057 22.9692 35.7908 23.1978 35.8531C25.0675 36.3659 26.8508 37.0967 28.5537 38.0226C29.2065 38.3776 29.9478 38.5458 30.547 39.0088C30.5985 39.0482 30.6952 39.0461 30.7488 38.9859C30.8085 38.9195 30.7632 38.851 30.72 38.7929C30.5326 38.5416 30.304 38.332 30.0569 38.141C29.2868 37.5472 28.4384 37.0822 27.5756 36.6462C26.3401 36.0213 25.0634 35.4815 23.9185 34.6843C23.6673 34.5099 23.3667 34.4081 23.0866 34.2711C22.9013 34.1818 22.7015 34.1673 22.5162 34.1424V34.1445ZM15.6303 31.5577C15.4038 31.5577 15.2762 31.5577 15.1506 31.5577C15.0394 31.5577 14.924 31.5639 14.887 31.6947C14.8499 31.8296 14.9488 31.8981 15.0435 31.95C15.1876 32.0268 15.3359 32.0954 15.4841 32.1639C16.1287 32.4545 16.7732 32.7514 17.4218 33.0317C17.7204 33.1604 17.9037 33.0753 17.9696 32.8095C18.0478 32.5002 17.8419 32.0933 17.5454 31.9729C16.8988 31.7113 16.2234 31.5888 15.6303 31.5556V31.5577Z" fill="white"/>
</svg>
