<svg xmlns="http://www.w3.org/2000/svg" version="1.1" xmlns:xlink="http://www.w3.org/1999/xlink" width="32" height="32"><svg width="32" height="32" viewBox="0 0 32 32" fill="none" xmlns="http://www.w3.org/2000/svg">
<g clip-path="url(#clip0_18_2)">
<circle cx="16" cy="16" r="16" fill="black"></circle>
<path d="M3.09203 15.533C3.17746 15.4879 3.25435 15.5359 3.33408 15.5532C3.59702 15.6107 3.85806 15.6789 4.12289 15.7211C4.4817 15.7777 4.83767 15.7518 5.19932 15.6866C5.59515 15.6155 6.00238 15.6136 6.40485 15.581C7.42717 15.4966 8.4457 15.3833 9.46233 15.2404C10.3109 15.1214 11.1567 14.9794 11.9987 14.8201C12.1582 14.7903 12.2379 14.7212 12.311 14.5763C12.5787 14.0486 12.6954 13.4728 12.8606 12.9134C13.4947 10.7573 14.1477 8.60688 14.8758 6.48048C14.9584 6.23867 15.0704 6.01125 15.1805 5.78191C15.1985 5.74353 15.2147 5.68788 15.2451 5.6754C15.4415 5.59672 15.4966 5.44894 15.4862 5.25031C15.4824 5.17835 15.5925 5.1486 15.6618 5.20905C15.7102 5.25127 15.7358 5.33763 15.8174 5.28966C15.8753 5.25511 15.845 5.18027 15.8535 5.12365C15.8659 5.03345 15.8981 4.96436 15.994 4.93366C16.2531 4.84826 16.2921 4.63619 16.2807 4.4011C16.274 4.26772 16.2294 4.1353 16.2531 4C16.5351 4.00384 16.5578 4.02111 16.6214 4.2754C16.63 4.30802 16.6395 4.34065 16.6452 4.37423C16.6575 4.4414 16.667 4.50857 16.7486 4.53256C16.8417 4.55943 16.854 4.4865 16.8929 4.4318C16.9584 4.34161 17.1891 4.4059 17.2432 4.52776C17.2707 4.58917 17.284 4.6573 17.3039 4.72159C17.6609 5.89898 17.938 7.09748 18.2124 8.29694C18.2389 8.41304 18.2779 8.52243 18.332 8.6299C18.4563 8.87459 18.5256 9.13656 18.5209 9.41387C18.5209 9.46857 18.5389 9.54149 18.4611 9.56356C18.3775 9.58659 18.3386 9.52518 18.3101 9.46089C18.2086 9.23731 18.1098 9.01181 18.0102 8.78727C17.9314 8.60975 17.8479 8.43607 17.7055 8.30077C17.6124 8.32956 17.6067 8.39961 17.5963 8.46486C17.5783 8.57617 17.584 8.6894 17.6191 8.79303C17.7966 9.30928 17.8355 9.85623 17.958 10.384C18.1545 11.2351 18.3434 12.0891 18.5351 12.9412C18.5465 12.9911 18.5579 13.0401 18.5712 13.09C18.5826 13.1303 18.5939 13.1754 18.6452 13.1792C18.6927 13.1821 18.7202 13.1447 18.7449 13.1111C18.8009 13.0353 18.8332 12.947 18.8607 12.8578C18.9423 12.5977 18.9869 12.33 19.0173 12.0594C19.024 11.9961 19.0021 11.9222 19.0686 11.8684C19.1777 11.8857 19.2072 11.9845 19.2508 12.0594C19.4036 12.3166 19.49 12.6015 19.5679 12.8885C19.641 13.1581 19.7036 13.4316 19.7691 13.7041C19.8317 13.9622 19.8317 13.9699 20.1032 13.9469C20.4972 13.9133 20.8901 13.8701 21.2822 13.826C22.126 13.731 22.969 13.635 23.8128 13.5362C24.2305 13.4872 24.6463 13.4287 25.0639 13.3817C25.5319 13.3289 26.0008 13.2905 26.4678 13.2349C27.0934 13.161 27.718 13.0737 28.3435 13.0007C28.559 12.9758 28.7726 12.922 28.9994 12.9364C29.0089 13.0928 28.896 13.1322 28.7982 13.1629C28.6387 13.2128 28.4726 13.2473 28.3084 13.278C28.092 13.3183 27.8869 13.375 27.6971 13.4987C27.5879 13.5697 27.4484 13.5985 27.3193 13.6321C27.2139 13.6599 27.1769 13.7012 27.2272 13.8106C27.268 13.8979 27.3734 13.99 27.3117 14.0822C27.2462 14.181 27.1086 14.1858 26.9928 14.2107C26.7441 14.2654 26.4906 14.2606 26.2391 14.2769C26.1176 14.2846 26.0255 14.3249 25.9847 14.443C25.9382 14.5773 25.8375 14.6377 25.7141 14.6857C25.624 14.7203 25.5215 14.7462 25.4455 14.8527C26.1869 15.0408 26.9016 15.2768 27.6867 15.3747C27.5395 15.5196 27.3895 15.5474 27.2462 15.5829C26.6245 15.7374 25.9894 15.819 25.3544 15.8765C24.8257 15.9245 24.3064 16.0301 23.7834 16.1107C23.0772 16.2191 22.37 16.317 21.66 16.3947C21.1407 16.4523 20.6272 16.531 20.127 16.6864C19.9039 16.7555 19.8982 16.7622 19.9504 16.9877C20.3026 18.5345 20.6538 20.0814 21.0097 21.6282C21.1426 22.2068 21.2926 22.7816 21.4246 23.3602C21.4796 23.6039 21.5774 23.8256 21.6894 24.0453C21.8327 24.3246 21.9675 24.6076 22.1061 24.8878C22.146 24.9684 22.1564 25.0423 22.0406 25.051C21.9229 25.0596 21.8365 25.0817 21.8052 25.2227C21.7777 25.3523 21.827 25.4329 21.9115 25.5115C21.9229 25.5221 21.9267 25.5413 21.9419 25.572C21.8688 25.6603 21.7055 25.7092 21.7558 25.8819C21.7672 25.9203 21.716 25.9318 21.6828 25.928C21.6419 25.9232 21.5973 25.9165 21.5622 25.8963C21.4065 25.8042 21.266 25.7495 21.1455 25.9549C21.1047 26.024 21.023 26.0115 20.9851 25.9328C20.911 25.7812 20.8 25.7524 20.6519 25.81C20.5617 25.8445 20.5067 25.7985 20.4753 25.7169C20.4269 25.5931 20.3586 25.5547 20.2228 25.6065C20.0861 25.6593 19.9248 25.7745 19.7976 25.69C19.6837 25.6142 19.7283 25.4233 19.697 25.2841C19.641 25.0375 19.6096 25.0135 19.3495 25.0558C19.0524 25.1037 19.0211 25.0797 18.9679 24.7727C18.9414 24.6192 18.8506 24.5261 18.6955 24.4934C18.6623 24.4867 18.63 24.4771 18.5977 24.4685C18.4547 24.4333 18.4332 24.3556 18.5332 24.2353C18.6443 24.1019 18.63 24.0309 18.4838 23.9302C17.4501 23.2172 16.3186 22.6991 15.1606 22.2356C14.3718 21.9199 13.5725 21.6291 12.8046 21.2645C12.6508 21.1916 12.4923 21.2108 12.3338 21.206C12.2388 21.2031 12.2104 21.2818 12.179 21.3509C12.086 21.5514 12.0063 21.7587 11.9655 21.9755C11.9237 22.1943 11.8459 22.3949 11.7566 22.5973C11.5886 22.9764 11.4481 23.3688 11.2943 23.7536C11.2156 23.9513 11.1187 24.1394 10.9972 24.314C10.9384 24.3985 10.8738 24.4781 10.7856 24.5299C10.6669 24.6009 10.5872 24.6595 10.5198 24.4608C10.5112 24.4368 10.4979 24.4148 10.4894 24.3908C10.4714 24.338 10.44 24.3035 10.3802 24.3035C10.3185 24.3035 10.2948 24.3438 10.2768 24.3956C10.235 24.5155 10.1923 24.6355 10.1458 24.7535C10.1059 24.8542 10.0509 24.8888 9.9322 24.8399C9.73096 24.7564 9.72527 24.7669 9.62465 24.9627C9.53922 25.1287 9.45758 25.2956 9.34178 25.4444C9.2573 25.5528 9.15573 25.6392 9.03138 25.6987C8.95164 25.737 8.90323 25.714 8.88235 25.6286C8.84912 25.4933 8.86052 25.3676 8.91747 25.2333C9.26299 24.4301 9.53447 23.6001 9.7433 22.7499C9.76513 22.6597 9.78127 22.5666 9.80405 22.4764C9.87145 22.2135 9.85246 21.9765 9.63699 21.7798C9.55915 21.7088 9.4927 21.6176 9.4367 21.4852C9.61895 21.4708 9.78507 21.4958 9.94739 21.4651C10.067 21.442 10.1382 21.3931 10.1799 21.2722C10.2682 21.015 10.3698 20.7627 10.4211 20.4949C10.4695 20.2407 10.4524 20.2167 10.2236 20.1063C9.56769 19.7916 8.88899 19.5469 8.16947 19.4317C7.84484 19.3799 7.51925 19.3483 7.19082 19.3454C7.06077 19.3454 6.94212 19.3838 6.82156 19.4202C6.54724 19.5018 6.27575 19.591 6.00332 19.6755C5.96441 19.6879 5.89796 19.711 5.88562 19.6956C5.82107 19.6169 5.729 19.5709 5.6673 19.4941C5.59705 19.4077 5.66255 19.3329 5.71286 19.2667C5.77361 19.1861 5.8429 19.1122 5.9103 19.0364C5.94922 18.9923 5.99573 18.9577 5.96441 18.8838C5.93213 18.809 5.88087 18.7898 5.80588 18.7888C5.56003 18.7869 5.31988 18.8291 5.07877 18.8656C4.91171 18.8905 4.74559 18.8982 4.57093 18.8867C4.55574 18.7687 4.63073 18.6862 4.64592 18.5892C4.67914 18.3781 4.62409 18.3158 4.4219 18.3637C4.3004 18.3925 4.1827 18.4367 4.0479 18.4779C4.00044 18.3849 4.03367 18.2947 4.03651 18.2073C4.04221 17.9732 4.00994 17.9473 3.76978 17.9914C3.67106 18.0097 3.57139 18.0327 3.47172 18.0394C3.2496 18.0538 3.21068 17.9943 3.30655 17.7957C3.34357 17.7189 3.37964 17.6421 3.42616 17.5711C3.4964 17.4646 3.46792 17.3831 3.38249 17.3034C3.3075 17.2334 3.22302 17.1806 3.13664 17.1269C2.95819 17.0175 2.95534 16.8726 3.12335 16.7536C3.19929 16.6999 3.28282 16.6624 3.3692 16.6269C3.48406 16.5799 3.49165 16.4974 3.38534 16.4302C3.32269 16.3899 3.24675 16.3717 3.17746 16.341C3.1319 16.3208 3.08633 16.2968 3.07209 16.2469C3.06545 16.2057 3.09393 16.1961 3.11671 16.1942C3.38154 16.1759 3.38439 16.1337 3.27523 15.8967C3.21828 15.7739 3.15563 15.6539 3.09488 15.5321H3.08918L3.09203 15.533ZM15.7823 8.73066C15.7776 8.53203 15.7481 8.34779 15.6732 8.17507C15.6342 8.08583 15.6096 7.94573 15.5004 7.94861C15.3751 7.95149 15.3884 8.10022 15.3637 8.19234C14.7942 10.2967 14.1069 12.3617 13.3286 14.3969C13.3077 14.4526 13.282 14.5072 13.2697 14.5648C13.227 14.7587 13.3324 14.8786 13.5231 14.8575C13.8573 14.821 14.086 14.6138 14.1791 14.2808C14.2654 13.9708 14.3594 13.6619 14.4562 13.3558C14.6888 12.6207 14.9698 11.9001 15.1463 11.1488C15.2707 10.62 15.4093 10.098 15.6058 9.59139C15.714 9.31408 15.769 9.02141 15.7814 8.73258L15.7823 8.73066ZM17.453 18.8061C17.4492 18.7744 17.4482 18.7581 17.4454 18.7409C17.3609 18.1968 17.2774 17.6527 17.19 17.1096C17.1587 16.9167 17.1473 16.9148 16.9385 16.9273C16.0927 16.98 15.2498 17.0683 14.4078 17.1643C14.1582 17.1931 13.9095 17.2334 13.6608 17.2708C13.6067 17.2794 13.5298 17.2737 13.5269 17.3533C13.5241 17.4282 13.5991 17.4358 13.6503 17.4589C13.6883 17.4761 13.7282 17.4905 13.768 17.504C14.0291 17.597 14.2968 17.6738 14.5493 17.7861C14.7799 17.8888 14.9869 17.9454 15.1834 17.7314C15.1995 17.7141 15.227 17.7064 15.2498 17.6949C15.3276 17.6556 15.3922 17.6575 15.4406 17.7439C15.6058 18.0365 15.8763 18.2102 16.1601 18.3609C16.4867 18.5345 16.8189 18.6967 17.1483 18.8656C17.21 18.8973 17.2736 18.9117 17.3419 18.9136C17.4292 18.9165 17.4653 18.8761 17.4539 18.8042L17.453 18.8061ZM15.769 14.5178C15.769 14.512 15.769 14.5053 15.769 14.4996C15.9779 14.4871 16.1876 14.4679 16.3965 14.4631C16.5265 14.4602 16.5465 14.4103 16.5227 14.2894C16.4155 13.7501 16.3167 13.209 16.2171 12.6687C16.1706 12.4192 16.1288 12.1688 16.0842 11.9193C16.0718 11.8521 16.0585 11.7782 15.9684 11.7802C15.8991 11.7811 15.8355 11.8051 15.808 11.88C15.7994 11.9039 15.7918 11.9279 15.7833 11.9519C15.5564 12.5804 15.3333 13.2099 15.1596 13.8557C15.1179 14.0111 15.0789 14.1676 15.0675 14.3288C15.0562 14.5024 15.0723 14.5197 15.2403 14.5197C15.4159 14.5197 15.5925 14.5197 15.7681 14.5197L15.769 14.5178ZM13.1264 19.735C12.9716 19.7388 12.8853 19.8136 12.8615 19.9595C12.8179 20.2282 12.8729 20.3251 13.1302 20.4191C13.2327 20.4566 13.3352 20.4959 13.4406 20.5247C14.3025 20.7617 15.1245 21.0995 15.9095 21.5274C16.2104 21.6915 16.5521 21.7692 16.8284 21.9832C16.8521 22.0015 16.8967 22.0005 16.9214 21.9727C16.9489 21.942 16.928 21.9103 16.9081 21.8834C16.8217 21.7673 16.7164 21.6704 16.6025 21.5821C16.2474 21.3077 15.8564 21.0927 15.4586 20.8912C14.8891 20.6024 14.3006 20.3529 13.7728 19.9844C13.657 19.9038 13.5184 19.8568 13.3893 19.7935C13.3039 19.7522 13.2118 19.7455 13.1264 19.734V19.735ZM9.95213 18.5393C9.84772 18.5393 9.78887 18.5393 9.73096 18.5393C9.6797 18.5393 9.62655 18.5422 9.60946 18.6027C9.59237 18.665 9.63794 18.6967 9.6816 18.7207C9.74805 18.7562 9.81639 18.7879 9.88474 18.8195C10.1818 18.9539 10.479 19.0911 10.778 19.2206C10.9156 19.2801 11.0001 19.2408 11.0305 19.118C11.0665 18.975 10.9716 18.7869 10.8349 18.7313C10.5369 18.6103 10.2255 18.5537 9.95213 18.5384V18.5393Z" fill="#BE1622"></path>
</g>
<defs>
<clipPath id="SvgjsClipPath1001">
<rect width="32" height="32" fill="white"></rect>
</clipPath>
</defs>
</svg><style>@media (prefers-color-scheme: light) { :root { filter: none; } }
@media (prefers-color-scheme: dark) { :root { filter: none; } }
</style></svg>