<svg width="489" height="262" viewBox="0 0 489 262" fill="none" xmlns="http://www.w3.org/2000/svg">
<path d="M0.788026 118.232C1.49699 117.863 2.13505 118.255 2.79675 118.397C4.97878 118.867 7.14505 119.425 9.34284 119.77C12.3205 120.233 15.2745 120.021 18.2758 119.487C21.5606 118.907 24.94 118.891 28.28 118.624C36.7639 117.934 45.2163 117.008 53.653 115.838C60.6953 114.865 67.7141 113.704 74.7013 112.401C76.0247 112.158 76.6864 111.593 77.2929 110.408C79.5143 106.092 80.4833 101.384 81.8539 96.8093C87.116 79.1769 92.5356 61.5916 98.5775 44.2025C99.2629 42.2251 100.192 40.3653 101.106 38.4899C101.256 38.176 101.39 37.7209 101.642 37.6188C103.272 36.9754 103.729 35.7669 103.643 34.1426C103.611 33.5541 104.525 33.3108 105.1 33.8052C105.502 34.1504 105.714 34.8567 106.392 34.4643C106.872 34.1818 106.62 33.5698 106.691 33.1068C106.794 32.3692 107.061 31.8042 107.857 31.5531C110.008 30.8547 110.331 29.1205 110.236 27.1979C110.181 26.1072 109.811 25.0243 110.008 23.9179C112.347 23.9493 112.536 24.0905 113.064 26.17C113.135 26.4368 113.214 26.7036 113.261 26.9782C113.363 27.5275 113.442 28.0768 114.12 28.273C114.892 28.4927 114.994 27.8963 115.317 27.449C115.86 26.7114 117.775 27.2372 118.224 28.2338C118.452 28.736 118.562 29.2931 118.728 29.8189C121.69 39.4472 123.99 49.2482 126.266 59.057C126.487 60.0065 126.81 60.9011 127.259 61.78C128.291 63.781 128.866 65.9232 128.827 68.191C128.827 68.6383 128.976 69.2347 128.33 69.4152C127.637 69.6035 127.314 69.1013 127.078 68.5755C126.235 66.7472 125.416 64.9031 124.589 63.0669C123.935 61.6152 123.242 60.1949 122.06 59.0884C121.288 59.3238 121.241 59.8967 121.154 60.4303C121.004 61.3405 121.052 62.2665 121.343 63.114C122.816 67.3357 123.139 71.8085 124.155 76.1244C125.786 83.0848 127.354 90.0687 128.945 97.0369C129.039 97.4449 129.134 97.8451 129.244 98.2532C129.339 98.5827 129.433 98.9516 129.859 98.9829C130.252 99.0065 130.481 98.7004 130.686 98.4258C131.15 97.8059 131.418 97.0839 131.647 96.3542C132.324 94.2276 132.694 92.0383 132.946 89.8254C133.002 89.3075 132.82 88.7033 133.372 88.2638C134.278 88.4051 134.522 89.2133 134.884 89.8254C136.153 91.9284 136.869 94.259 137.515 96.6053C138.122 98.8103 138.642 101.047 139.185 103.275C139.705 105.386 139.705 105.449 141.958 105.261C145.227 104.986 148.488 104.633 151.742 104.272C158.745 103.495 165.74 102.71 172.743 101.902C176.209 101.502 179.659 101.023 183.125 100.639C187.009 100.207 190.9 99.8932 194.776 99.4381C199.967 98.8338 205.15 98.1198 210.342 97.5234C212.13 97.3194 213.902 96.8799 215.785 96.9976C215.864 98.2767 214.926 98.5984 214.115 98.8495C212.791 99.2576 211.413 99.5401 210.05 99.7912C208.254 100.121 206.553 100.584 204.977 101.596C204.071 102.177 202.913 102.412 201.842 102.687C200.967 102.914 200.66 103.252 201.078 104.146C201.416 104.86 202.291 105.614 201.779 106.367C201.235 107.175 200.093 107.215 199.132 107.419C197.068 107.866 194.965 107.827 192.877 107.96C191.869 108.023 191.105 108.352 190.766 109.318C190.38 110.416 189.545 110.91 188.521 111.303C187.773 111.585 186.922 111.797 186.292 112.668C192.444 114.206 198.376 116.137 204.89 116.937C203.669 118.122 202.425 118.35 201.235 118.64C196.076 119.903 190.806 120.57 185.536 121.041C181.148 121.433 176.839 122.297 172.499 122.956C166.638 123.842 160.769 124.643 154.877 125.278C150.568 125.749 146.306 126.393 142.155 127.664C140.304 128.229 140.257 128.284 140.69 130.128C143.612 142.777 146.527 155.427 149.481 168.076C150.584 172.808 151.828 177.509 152.923 182.24C153.38 184.234 154.192 186.046 155.121 187.843C156.311 190.127 157.429 192.442 158.579 194.733C158.91 195.392 158.997 195.996 158.036 196.067C157.059 196.138 156.342 196.318 156.082 197.472C155.854 198.531 156.263 199.19 156.965 199.833C157.059 199.92 157.091 200.077 157.217 200.328C156.61 201.05 155.255 201.45 155.673 202.862C155.767 203.176 155.342 203.271 155.066 203.239C154.727 203.2 154.357 203.145 154.066 202.98C152.774 202.227 151.608 201.78 150.607 203.459C150.269 204.024 149.591 203.922 149.276 203.278C148.662 202.039 147.74 201.803 146.511 202.274C145.763 202.556 145.306 202.18 145.046 201.513C144.644 200.5 144.077 200.187 142.951 200.61C141.816 201.042 140.477 201.984 139.422 201.293C138.476 200.673 138.847 199.112 138.587 197.974C138.122 195.957 137.862 195.761 135.704 196.106C133.238 196.498 132.978 196.302 132.537 193.791C132.316 192.536 131.563 191.775 130.276 191.508C130 191.453 129.732 191.374 129.465 191.304C128.278 191.016 128.099 190.38 128.929 189.397C129.851 188.306 129.732 187.725 128.519 186.902C119.941 181.071 110.551 176.834 100.941 173.044C94.3947 170.462 87.7619 168.084 81.3892 165.102C80.113 164.506 78.7975 164.663 77.482 164.624C76.6943 164.6 76.4579 165.244 76.198 165.809C75.426 167.449 74.7643 169.144 74.4256 170.917C74.079 172.706 73.433 174.346 72.6926 176.002C71.2983 179.102 70.1324 182.311 68.8563 185.458C68.2025 187.074 67.399 188.612 66.3907 190.04C65.9023 190.731 65.3666 191.382 64.634 191.806C63.6493 192.387 62.9876 192.865 62.4284 191.241C62.3575 191.045 62.2472 190.864 62.1763 190.668C62.0266 190.237 61.7667 189.954 61.2704 189.954C60.7584 189.954 60.5614 190.284 60.4118 190.707C60.0651 191.688 59.7107 192.669 59.3247 193.634C58.9938 194.458 58.5369 194.741 57.5523 194.341C55.8823 193.658 55.835 193.744 55 195.345C54.291 196.702 53.6136 198.068 52.6526 199.284C51.9515 200.171 51.1086 200.877 50.0767 201.364C49.415 201.678 49.0132 201.489 48.8399 200.791C48.5642 199.684 48.6587 198.656 49.1314 197.558C51.9987 190.99 54.2517 184.202 55.9847 177.25C56.1659 176.512 56.2998 175.751 56.4888 175.013C57.0481 172.863 56.8906 170.925 55.1024 169.316C54.4565 168.736 53.9051 167.99 53.4403 166.907C54.9527 166.789 56.3313 166.993 57.6783 166.742C58.6709 166.554 59.2617 166.154 59.6083 165.165C60.3409 163.062 61.1837 160.998 61.6091 158.809C62.0109 156.73 61.8691 156.533 59.9706 155.631C54.5274 153.057 48.8951 151.056 42.924 150.114C40.23 149.691 37.528 149.432 34.8025 149.408C33.7233 149.408 32.7386 149.722 31.7382 150.02C29.4616 150.687 27.2087 151.417 24.9479 152.108C24.6249 152.21 24.0735 152.398 23.9711 152.272C23.4354 151.629 22.6713 151.252 22.1593 150.625C21.5764 149.918 22.1199 149.306 22.5374 148.765C23.0416 148.106 23.6166 147.501 24.1759 146.881C24.4989 146.52 24.8849 146.238 24.6249 145.634C24.3571 145.022 23.9317 144.865 23.3094 144.857C21.2692 144.841 19.2762 145.186 17.2753 145.485C15.8889 145.689 14.5104 145.751 13.061 145.657C12.9349 144.692 13.5572 144.017 13.6833 143.225C13.959 141.498 13.5021 140.988 11.8242 141.381C10.8159 141.616 9.83911 141.977 8.72053 142.314C8.32666 141.553 8.60237 140.816 8.626 140.102C8.67326 138.187 8.40543 137.975 6.41246 138.336C5.59321 138.485 4.76609 138.673 3.93897 138.728C2.09567 138.846 1.7727 138.36 2.56831 136.735C2.87553 136.107 3.17487 135.48 3.56086 134.899C4.14378 134.028 3.90746 133.361 3.1985 132.71C2.57619 132.137 1.8751 131.705 1.15826 131.266C-0.322681 130.371 -0.346313 129.186 1.04798 128.213C1.67817 127.774 2.37138 127.468 3.08821 127.177C4.04138 126.793 4.10439 126.118 3.22213 125.569C2.70222 125.239 2.07204 125.09 1.49699 124.839C1.11888 124.674 0.740762 124.478 0.622602 124.07C0.56746 123.733 0.803781 123.654 0.992838 123.638C3.19062 123.489 3.21425 123.144 2.30836 121.206C1.83572 120.201 1.31581 119.221 0.811659 118.224H0.764394L0.788026 118.232ZM106.1 62.6039C106.061 60.9796 105.817 59.4729 105.195 58.0605C104.872 57.3307 104.667 56.185 103.761 56.2086C102.721 56.2321 102.831 57.4484 102.627 58.2017C97.9001 75.4103 92.1969 92.2972 85.7375 108.941C85.5642 109.396 85.3515 109.843 85.2491 110.314C84.8946 111.899 85.769 112.88 87.3523 112.707C90.1251 112.409 92.0236 110.714 92.7956 107.991C93.5124 105.457 94.2923 102.93 95.0958 100.427C97.0257 94.4159 99.3574 88.5228 100.823 82.3785C101.855 78.0548 103.005 73.786 104.635 69.6427C105.533 67.3749 105.99 64.9816 106.093 62.6196L106.1 62.6039ZM119.965 144.998C119.933 144.739 119.925 144.606 119.902 144.465C119.2 140.015 118.507 135.566 117.783 131.125C117.523 129.547 117.428 129.532 115.695 129.634C108.676 130.065 101.681 130.787 94.694 131.572C92.6223 131.807 90.5584 132.137 88.4945 132.443C88.0455 132.513 87.4075 132.466 87.3838 133.118C87.3602 133.73 87.9825 133.793 88.4079 133.981C88.723 134.122 89.0538 134.24 89.3847 134.35C91.5509 135.111 93.7724 135.739 95.8677 136.657C97.7819 137.496 99.4992 137.959 101.13 136.209C101.264 136.068 101.492 136.005 101.681 135.911C102.327 135.59 102.863 135.605 103.265 136.311C104.635 138.705 106.88 140.125 109.236 141.357C111.945 142.777 114.702 144.104 117.436 145.485C117.948 145.744 118.476 145.861 119.043 145.877C119.768 145.901 120.067 145.571 119.972 144.982L119.965 144.998ZM105.99 109.93C105.99 109.883 105.99 109.828 105.99 109.781C107.723 109.678 109.464 109.522 111.197 109.482C112.276 109.459 112.442 109.051 112.245 108.062C111.355 103.652 110.535 99.2262 109.708 94.8083C109.322 92.7681 108.976 90.72 108.605 88.6797C108.503 88.1304 108.393 87.5262 107.644 87.5419C107.069 87.5498 106.542 87.7459 106.313 88.358C106.242 88.5542 106.179 88.7504 106.108 88.9465C104.226 94.0864 102.374 99.234 100.933 104.515C100.586 105.786 100.263 107.065 100.169 108.384C100.074 109.804 100.208 109.945 101.602 109.945C103.06 109.945 104.525 109.945 105.982 109.945L105.99 109.93ZM84.0596 152.594C82.7756 152.626 82.0587 153.238 81.8618 154.43C81.4994 156.628 81.9563 157.42 84.0911 158.189C84.9418 158.495 85.7926 158.817 86.667 159.052C93.8196 160.99 100.641 163.753 107.156 167.252C109.653 168.594 112.489 169.23 114.781 170.98C114.978 171.129 115.348 171.121 115.553 170.893C115.782 170.642 115.608 170.383 115.443 170.164C114.726 169.214 113.852 168.422 112.906 167.7C109.96 165.455 106.715 163.698 103.414 162.05C98.6878 159.688 93.8039 157.648 89.4241 154.634C88.463 153.975 87.3129 153.591 86.2416 153.073C85.5326 152.735 84.7685 152.68 84.0596 152.586V152.594ZM57.7177 142.817C56.8512 142.817 56.3628 142.817 55.8823 142.817C55.4569 142.817 55.0158 142.84 54.874 143.335C54.7322 143.845 55.1103 144.104 55.4726 144.3C56.0241 144.59 56.5912 144.849 57.1584 145.108C59.624 146.207 62.0896 147.329 64.571 148.388C65.7132 148.875 66.4143 148.553 66.6664 147.548C66.9657 146.379 66.178 144.841 65.0436 144.386C62.5701 143.397 59.9864 142.934 57.7177 142.809V142.817Z" fill="#BE1622"/>
<path d="M431.112 130.081C431.947 132.608 432.333 135.283 432.782 137.928C433.468 141.969 433.98 146.034 434.563 150.083C434.61 150.428 434.618 150.774 434.641 151.119C434.689 151.817 434.523 152.17 433.688 151.911C432.065 151.401 431.955 151.503 432.073 153.183C432.191 154.791 432.696 156.314 433.192 157.828C433.507 158.801 433.838 159.774 434.271 161.093C432.766 160.473 431.821 160.732 431.758 162.466C430.521 161.571 430.34 160.394 429.663 159.554C428.568 158.197 428.513 158.111 426.795 158.872C426.236 159.115 426.016 158.856 425.779 158.534C424.802 157.185 423.841 155.819 422.896 154.438C421.722 152.735 421.73 152.735 419.682 153.245C418.603 153.512 417.532 153.865 416.437 154.014C414.972 154.218 414.798 154.062 414.483 152.586C413.491 147.972 412.522 143.35 411.537 138.736C411.419 138.195 411.253 137.661 411.183 137.112C411.049 136.068 410.324 135.958 409.505 136.037C408.93 136.092 408.504 136.508 408.039 136.806C400.69 141.483 393.419 146.285 386.345 151.37C384.242 152.884 381.973 154.093 379.736 155.372C364.596 164.035 350.212 173.86 335.899 183.802C330.172 187.78 324.469 191.775 318.71 195.698C317.143 196.765 315.859 198.139 314.401 199.316C312.991 200.446 311.487 201.466 309.99 202.494C308.619 203.435 307.351 204.471 306.445 206.127C305.642 205.138 306.004 204.306 306.075 203.553C306.177 202.447 306.406 201.356 306.587 200.257C306.642 199.896 306.618 199.559 306.24 199.371C305.791 199.143 305.342 199.284 305.13 199.637C302.317 204.322 297.496 206.637 293.258 209.619C286.815 214.147 280.45 218.776 274.085 223.414C273.439 223.885 272.895 224.646 271.903 224.473C271.462 223.948 271.95 223.555 272.147 223.186C274.762 218.203 277.409 213.228 280.025 208.246C280.426 207.484 280.946 206.864 281.647 206.378C285.129 203.953 288.406 201.23 292.156 199.166C293.361 198.499 294.385 197.503 295.488 196.663C301.821 191.853 308.525 187.584 315.291 183.417C320.695 180.09 325.997 176.606 331.393 173.279C334.418 171.419 337.246 169.23 340.334 167.551C344.855 165.087 348.951 162.026 353.245 159.248C357.514 156.486 361.642 153.504 365.801 150.577C375.096 144.049 384.4 137.536 394.112 131.627C395.885 130.544 397.421 129.076 399.075 127.805C401.942 125.592 404.794 123.356 407.701 121.198C408.551 120.562 408.788 119.895 408.591 118.891C407.165 111.742 405.7 104.601 404.006 97.5155C403.652 96.0324 402.777 95.4518 401.415 95.2791C399.044 94.9809 396.657 95.0908 394.309 95.3419C388.48 95.9775 382.753 97.2017 377.058 98.5984C376.483 98.7397 375.931 98.8966 375.75 99.493C375.018 101.949 373.986 104.35 374.301 107.003C374.379 107.685 374.561 108.36 374.718 109.035C374.797 109.388 375.002 109.686 375.388 109.749C375.86 109.835 376.176 109.569 376.404 109.184C377.018 108.156 377.294 107.003 377.593 105.865C377.822 104.994 378.019 104.115 378.271 103.244C378.436 102.663 378.799 102.318 379.476 102.302C380.217 102.287 380.666 102.585 380.91 103.252C381.296 104.311 381.438 105.402 381.461 106.524C381.564 110.934 380.737 115.234 379.933 119.534C379.46 122.061 378.854 124.564 378.491 127.099C378.263 128.708 377.365 129.477 375.782 130.081C375.561 128.213 375.364 126.518 375.151 124.816C375.081 124.266 375.025 123.709 374.907 123.168C374.805 122.697 374.655 122.195 374.049 122.132C373.474 122.077 373.166 122.469 372.891 122.885C372.15 123.999 371.741 125.255 371.378 126.526C370.945 128.064 370.52 129.602 370.086 131.14C369.819 132.074 369.267 132.372 368.369 131.878C368.125 131.744 367.857 131.666 367.605 131.548C366.833 131.187 366.305 131.329 365.974 132.184C365.62 133.086 365.179 133.957 364.746 134.828C364.367 135.582 363.855 136.241 363.162 136.743C362.453 137.261 361.768 137.371 361.185 136.547C361.106 136.437 361.012 136.327 360.917 136.225C359.806 135.15 359.609 135.142 358.806 136.57C358.058 137.897 357.435 139.301 356.766 140.674C356.553 141.114 356.38 141.569 356.167 142.001C356.033 142.275 355.757 142.377 355.474 142.346C355.151 142.307 355.025 142.056 355.025 141.757C355.025 141.13 355.025 140.51 355.056 139.882C355.49 132.592 356.498 125.373 357.75 118.185C358.57 113.469 359.531 108.768 360.389 104.06C360.933 101.062 360.878 99.5479 356.774 100.56C351.48 101.855 346.06 102.444 340.625 102.773C336.308 103.04 331.984 103.213 327.659 103.44C325.91 103.526 325.855 103.542 325.682 101.824C325.571 100.733 324.894 100.442 324.012 100.325C322.72 100.152 321.538 100.639 320.325 100.945C319.27 101.212 318.277 101.839 317.111 101.58C316.906 100.851 317.426 100.38 317.592 99.8069C318.009 98.3944 317.789 97.9942 316.339 97.9785C314.386 97.955 312.432 98.057 310.478 98.0884C305.524 98.1747 300.577 98.6141 295.614 98.4336C294.779 98.4023 293.834 98.5435 292.959 97.7823C293.629 97.1389 294.29 97.029 294.96 96.9662C298.221 96.6681 301.482 96.3542 304.752 96.1031C306.705 95.954 308.627 95.593 310.502 95.0751C312.046 94.6514 312.259 94.0236 311.4 92.6974C311.14 92.2972 310.801 91.9441 310.683 91.3556C312.259 90.5944 313.96 90.6415 315.551 90.2648C317.521 89.8019 319.514 89.4488 321.373 88.6248C322.673 88.052 322.696 87.7067 321.578 86.8357C321.199 86.5375 320.648 86.3492 320.703 85.7763C320.766 85.0858 321.42 84.9995 321.932 84.8347C323.547 84.3325 325.241 84.3638 326.903 84.1441C336.025 82.9357 345.162 81.79 354.284 80.6208C357.396 80.2206 360.5 79.7498 363.619 79.428C364.722 79.3103 365.163 78.7375 365.517 77.8272C367.424 72.9621 368.763 67.9321 370.094 62.8943C372.867 52.4263 375.6 41.9504 378.35 31.4824C378.476 31.0195 378.452 30.4859 378.814 30.1171C381.099 27.8179 381.359 24.7967 381.816 21.8541C382.084 20.1356 382.304 18.4171 382.824 16.7535C383.045 16.0473 383.265 15.3646 384.21 15.1213C386.361 14.572 387.141 12.9163 387.235 10.8839C387.283 9.9187 387.235 8.93781 387.133 7.97262C387.038 7.13299 387.314 6.79556 388.149 6.91327C388.842 7.01528 389.536 7.1016 390.221 7.21146C391.111 7.3527 391.623 7.02313 391.978 6.15995C392.663 4.47283 393.072 2.72293 393.514 0.973037C393.592 0.651307 393.592 0.298189 394.026 0C394.987 0.925954 394.979 2.14225 395.199 3.24869C395.428 4.40221 395.546 5.57927 395.727 6.74848C395.853 7.56458 396.168 8.15311 397.121 8.29435C399.398 8.62393 400.367 10.264 400.824 12.2571C402.068 17.6716 403.282 23.0939 404.471 28.5163C407.606 42.8293 410.623 57.1581 414.255 71.3613C414.893 73.8488 414.901 73.8645 417.484 73.5349C425.787 72.4912 434.074 71.3299 442.393 70.4039C450.845 69.4623 459.313 68.5363 467.821 68.1204C470.121 68.0106 472.405 67.6967 474.713 67.7281C475.651 67.7438 476.572 67.524 477.407 68.3951C477.904 68.913 478.881 68.552 479.637 68.4735C481.992 68.2224 484.347 67.9635 486.711 67.7202C487.128 67.681 487.546 67.6888 487.963 67.6888C488.546 67.6888 488.877 68.0263 488.979 68.5442C489.113 69.219 488.57 69.321 488.097 69.4544C487.223 69.6977 486.364 70.0116 485.474 70.1685C483.946 70.4353 483.008 71.3063 483.024 72.8051C483.04 74.453 482.173 75.4339 480.913 76.1166C479.204 77.0504 478.361 78.4629 478.329 80.3305C478.313 81.3898 477.793 81.9313 476.966 82.4492C472.665 85.1643 468.427 87.9735 464.103 90.6572C462.44 91.6852 461.306 93.1369 460.172 94.6278C459.526 95.4831 459.534 96.2522 460.298 97.0447C461.125 97.9 461.755 98.8888 462.354 99.9246C462.826 100.749 462.7 101.29 461.976 101.886C460.148 103.401 458.297 104.931 456.162 105.959C448.899 109.459 442.676 114.567 435.886 118.789C434.405 119.707 432.963 120.657 431.301 121.245C430.584 121.496 429.923 121.912 429.269 122.312C427.867 123.175 427.355 124.478 427.591 126.063C427.788 127.374 428.158 128.637 428.654 129.869C429.012 130.758 429.616 130.892 430.466 130.269C430.577 130.191 430.695 130.12 430.821 130.073C430.876 130.049 430.955 130.089 431.128 130.112L431.112 130.081ZM421.21 93.0819C421.234 93.2938 421.242 93.4351 421.266 93.5763C422.045 97.7353 422.802 101.894 423.613 106.045C423.897 107.497 423.96 107.528 425.409 107.081C429.852 105.716 433.924 103.652 437.556 100.756C438.596 99.9246 439.722 99.0379 440.092 97.7745C440.66 95.8363 442.07 94.6592 443.409 93.3644C444.007 92.7838 444.614 92.2031 445.126 91.5518C445.614 90.9318 446.544 90.3041 446.095 89.4409C445.709 88.6954 444.701 89.0642 443.968 89.0329C436.492 88.719 429.348 90.8534 422.069 91.999C421.384 92.1089 421.116 92.4934 421.21 93.0819ZM387.456 77.2701C390.197 76.8307 393.214 76.7836 396.153 76.1009C397.641 75.7556 397.665 75.7478 397.405 74.1627C396.097 66.2921 394.774 58.4214 393.451 50.5508C393.38 50.1428 393.293 49.7269 393.143 49.3424C392.939 48.8245 392.45 48.6911 391.954 48.6518C391.418 48.6126 391.253 49.0285 391.135 49.4287C390.93 50.0878 390.733 50.7548 390.575 51.4375C388.905 58.8844 387.243 66.3313 385.589 73.786C385.487 74.2568 385.337 74.7355 385.329 75.2142C385.321 76.6816 385.943 77.325 387.464 77.2701H387.456ZM454.855 98.5435C454.098 98.465 453.492 98.8495 452.862 99.132C443.732 103.354 435.232 108.635 427.087 114.497C426.921 114.622 426.756 114.748 426.583 114.865C425.992 115.25 426.063 115.768 426.252 116.333C426.48 117.023 426.985 117.07 427.591 116.968C429.253 116.678 430.789 116.019 432.294 115.289C435.618 113.673 438.738 111.711 441.77 109.608C446.166 106.555 450.42 103.275 455.556 101.478C456.336 101.204 456.643 100.733 456.414 99.8854C456.186 99.0457 455.784 98.5121 454.855 98.5514V98.5435ZM431.616 148.851C432.136 148.765 432.577 148.435 432.617 147.964C432.664 147.36 432.105 147.242 431.593 147.242C431.183 147.242 430.703 147.219 430.742 147.823C430.781 148.341 431.096 148.678 431.609 148.843L431.616 148.851Z" fill="#BE1622"/>
<path d="M239.779 130.442C240.394 130.293 240.583 130.787 240.953 130.921C242.087 131.329 242.591 131.101 243.017 129.94C243.545 128.488 243.797 126.989 243.741 125.443C243.726 125.067 243.836 124.737 244.246 124.651C244.655 124.564 244.923 124.831 245.041 125.169C245.451 126.346 245.876 127.484 245.766 128.802C245.396 133.157 245.112 137.528 245.159 141.906C245.199 145.595 245.419 149.259 246.065 152.892C246.325 154.375 246.585 154.509 247.995 154.069C249.059 153.74 249.807 153.026 250.358 152.123C250.863 151.299 251.264 150.405 251.745 149.557C252.139 148.859 252.296 148.011 253.242 147.666C253.864 147.446 253.911 146.662 254.163 146.105C257.724 138.258 261.458 130.505 265.255 122.767C265.436 122.399 265.648 122.053 265.837 121.708C266.042 121.755 266.216 121.739 266.279 121.81C267.752 123.631 268.721 123.835 270.202 121.983C271.809 119.966 274.006 119.919 276.141 119.464C276.582 119.37 276.826 119.644 276.874 120.005C276.968 120.759 277.094 121.535 277.008 122.281C276.685 125.106 276.243 127.923 275.007 130.528C272.62 135.582 272.076 140.91 272.659 146.387C272.793 147.627 273.022 148.859 273.163 150.099C273.282 151.158 273.88 151.315 274.77 151.08C275.605 150.86 276.291 150.413 276.921 149.848C278.079 148.804 278.93 147.533 279.607 146.16C280.765 143.79 281.852 141.381 282.986 139.003C283.735 137.434 284.546 135.903 285.681 134.554C286.271 133.855 286.941 133.251 287.76 132.843C288.327 132.561 288.855 132.529 289.076 133.267C289.32 134.091 289.722 134.577 290.706 134.467C291.573 134.373 291.447 135.111 291.447 135.637C291.463 137.661 291.171 139.654 290.832 141.64C290.21 145.336 289.383 148.992 289.044 152.735C289.013 153.081 289.028 153.591 288.816 153.724C287.311 154.721 287.532 156.408 287.122 157.812C286.35 160.48 285.665 163.172 284.31 165.636C283.183 167.684 281.765 169.45 279.52 170.391C278.016 171.019 277.843 171.058 276.897 169.756C276.228 168.83 275.432 168.618 274.384 168.657C272.62 168.728 270.966 169.308 269.264 169.654C267.5 170.015 266.184 169.591 264.908 168.367C263.191 166.727 261.655 164.938 260.103 163.148C258.669 161.501 257.306 161.673 256.526 163.706C256.109 164.796 255.447 165.605 254.604 166.358C253.202 167.606 251.918 168.987 250.406 170.117C249.397 170.87 248.318 171.49 247.176 172.023C244.08 173.467 241.331 172.675 238.763 170.792C237.55 169.905 236.739 168.704 236.4 167.213C236.187 166.264 236.037 165.306 235.99 164.333C235.88 161.932 235.872 161.901 233.58 161.461C232.217 161.202 231.327 160.528 230.933 159.154C230.586 157.946 230.287 156.73 230.216 155.482C229.877 150.091 230.492 144.81 232.193 139.67C232.564 138.548 233.02 137.457 233.666 136.461C234.344 135.417 235.092 134.632 236.557 134.954C237.692 135.205 238.322 134.593 238.629 133.447C238.913 132.396 239.212 131.313 239.771 130.434L239.779 130.442ZM234.352 153.191C234.352 152.398 234.131 151.653 233.209 151.55C232.5 151.472 232.091 151.998 232.059 152.696C232.02 153.512 232.666 154.383 233.257 154.305C233.848 154.226 234.556 154.132 234.352 153.198V153.191Z" fill="#BE1622"/>
<path d="M337.372 114.92C336.875 115.666 336.088 115.831 335.442 116.184C328.155 120.162 321.916 125.255 317.71 132.537C314.606 137.912 313.275 143.735 313.369 149.903C313.369 150.177 313.425 150.46 313.417 150.734C313.385 151.786 313.976 152.021 314.89 151.927C317.497 151.652 319.916 150.805 322.216 149.604C327.052 147.093 331.046 143.554 334.615 139.497C335.812 138.14 335.82 138.132 337.482 138.893C338.451 139.333 339.412 139.097 340.342 138.854C341.618 138.517 342.862 138.038 344.123 137.63C344.918 137.371 345.714 137.096 346.525 136.916C346.935 136.829 347.549 136.406 347.786 137.096C347.983 137.661 348.124 138.336 347.463 138.791C344.863 140.565 343.634 143.319 342.279 145.979C341.673 147.172 340.917 148.223 339.963 149.165C337.285 151.817 335.056 154.854 332.567 157.663C330.991 159.437 329.321 161.1 327.588 162.725C324.461 165.644 320.719 166.844 316.536 166.954C315.559 166.978 314.583 166.954 313.606 167.025C311.896 167.158 310.305 167.056 308.879 165.879C308.139 165.267 307.138 164.977 306.162 164.859C304.673 164.679 303.617 163.855 302.625 162.827C298.686 158.746 297.158 153.708 296.827 148.239C296.536 143.327 297.347 138.556 298.899 133.895C299.348 132.561 300.025 131.376 300.884 130.261C306.343 123.168 313.291 118.404 322.105 116.356C326.178 115.407 330.266 114.559 334.402 113.924C335.568 113.743 336.608 113.869 337.372 114.92Z" fill="#BE1622"/>
<path d="M197.226 128.723C198.006 128.857 198.179 129.359 198.502 129.704C199.487 130.748 200.432 130.63 201.109 129.422C202.125 127.609 202.441 127.507 204.331 128.409C206.828 129.594 208.081 132.404 207.088 135.072C205.757 138.673 205.001 142.409 204.41 146.167C203.898 149.416 203.898 152.68 205.229 155.796C206.04 157.703 207.072 157.938 208.75 156.643C209.538 156.039 210.113 155.246 210.562 154.375C211.2 153.143 211.799 151.888 212.429 150.648C212.925 149.659 213.422 148.663 214.438 147.878C215.17 148.726 215.225 149.793 215.58 150.719C216.005 151.809 217.872 152.869 218.928 152.578C218.991 152.563 219.093 152.531 219.109 152.484C219.731 150.562 222.583 150.138 222.315 147.509C222.15 145.877 222.67 145.422 224.166 144.551C224.481 145.32 224.206 146.034 224.088 146.756C223.04 152.806 220.992 158.558 218.707 164.231C218.038 165.903 217.179 167.519 216.667 169.246C215.911 171.819 213.871 173.122 211.87 174.487C210.94 175.123 209.877 175.084 208.837 174.809C208.096 174.613 207.387 174.307 206.686 174.009C205.331 173.444 204.048 173.389 202.685 174.087C200.518 175.202 198.967 174.927 197.139 173.303C195.808 172.126 194.933 170.619 194.13 169.081C193.129 167.166 192.381 165.149 191.712 163.101C191.538 162.576 191.444 162.011 191.042 161.595C190.53 161.069 189.979 160.943 189.443 161.579C189.222 161.846 189.01 162.12 188.821 162.419C186.946 165.346 184.756 168.053 182.85 170.964C179.313 176.363 174.57 180.279 168.229 182.115C166.89 182.499 165.827 182.382 164.692 181.628C159.336 178.074 156.208 173.114 155.168 166.829C154.956 165.534 154.743 164.216 154.869 162.89C154.916 162.364 154.798 161.681 155.547 161.548C156.24 161.422 156.988 161.438 157.445 162.105C157.87 162.733 158.154 163.462 158.595 164.082C159.044 164.726 159.509 164.961 160.273 164.247C161.707 162.905 161.967 162.96 163.448 164.082C165.173 165.393 165.984 165.204 166.803 163.203C167.993 163.549 168.528 164.53 169.064 165.495C169.773 166.766 170.372 168.116 171.16 169.332C173.279 172.596 177.737 172.612 179.848 169.301C184.181 162.489 188.19 155.474 191.341 148.059C193.145 143.805 194.051 139.176 195.382 134.719C195.973 132.733 196.32 130.669 197.234 128.723H197.226Z" fill="#BE1622"/>
<path d="M213.855 189.428C215.375 192.724 216.62 195.62 217.037 198.79C217.195 199.983 217.037 201.144 216.391 202.188C215.155 204.204 212.744 204.228 211.484 202.219C210.68 200.94 210.46 199.543 210.72 198.044C211.224 195.149 212.555 192.575 213.847 189.428H213.855ZM211.295 198.837C211.366 199.496 211.192 200.242 212.13 200.257C212.665 200.265 213.414 200.296 213.296 199.52C213.193 198.782 213.366 197.809 212.453 197.409C212.067 197.244 211.626 197.472 211.46 197.911C211.342 198.225 211.334 198.57 211.287 198.829L211.295 198.837Z" fill="#BE1622"/>
<path d="M354.346 215.436C354.39 215.33 354.432 215.224 354.472 215.118C354.819 214.205 355.016 213.299 355.119 212.391C355.225 211.457 355.232 210.522 355.2 209.58C355.168 208.664 355.1 207.743 355.047 206.809C355.001 205.925 354.955 205.111 354.977 204.169C354.991 203.583 355.013 203.063 355.075 202.453C355.106 202.14 355.146 201.819 355.196 201.49C355.237 201.223 355.277 200.966 355.318 200.718C355.425 200.072 355.534 199.487 355.647 198.944C355.783 198.289 355.924 197.695 356.063 197.128C356.22 196.494 356.375 195.893 356.515 195.272C356.65 194.677 356.771 194.066 356.866 193.382C356.881 193.398 356.894 193.334 356.902 193.212C356.91 193.101 356.917 192.97 356.923 192.818C356.93 192.671 356.937 192.507 356.951 192.289C356.983 192.036 356.937 191.916 357.142 191.099C355.25 188.135 365.976 189.539 363.269 190.038C363.564 190.457 363.649 190.667 363.72 190.807C364.083 191.597 364.537 192.479 365.117 193.492C365.133 193.521 365.15 193.55 365.167 193.579C365.656 194.431 366.118 195.301 366.553 196.174C367.014 197.099 367.445 198.028 367.849 198.944C368.274 199.91 368.668 200.862 369.036 201.779C369.44 202.79 369.812 203.758 370.159 204.655C370.572 205.723 370.96 206.718 371.32 207.527C371.591 208.137 371.855 208.667 372.124 209.1C373.361 211.123 372.753 212.177 373.007 214.165C373.098 214.903 373.302 215.773 373.735 216.888C374.272 218.271 374.655 219.497 374.94 220.658C375.486 222.9 375.67 224.897 375.74 227.368C375.742 227.436 375.743 227.504 375.745 227.573C375.781 228.967 375.992 231.365 376.261 234.05C376.477 236.187 376.734 238.507 377.024 240.65C377.379 243.273 377.791 245.631 378.251 247.063C378.262 247.097 378.273 247.131 378.284 247.165C378.519 247.922 378.681 248.725 378.786 249.525C378.89 250.321 378.939 251.125 378.951 251.921C378.963 252.742 378.936 253.553 378.889 254.335C378.838 255.184 378.764 256 378.692 256.756C378.611 257.61 378.532 258.389 378.494 259.063C378.492 259.1 378.489 259.136 378.487 259.171C378.433 260.029 378.324 260.718 378.194 261.241C378.137 261.478 378.011 261.58 377.887 261.58C377.887 261.58 377.887 261.58 377.887 261.58C377.733 261.581 377.583 261.419 377.559 261.128C377.515 260.588 377.434 259.948 377.309 259.232C377.185 258.523 377.019 257.741 376.802 256.895C376.657 256.332 376.49 255.744 376.299 255.133C376.239 254.941 376.183 254.759 376.131 254.58C375.866 253.676 375.701 252.934 375.595 252.261C375.465 251.431 375.423 250.706 375.382 249.911C375.347 249.217 375.312 248.472 375.212 247.562C375.098 246.538 374.913 245.307 374.566 243.715C374.363 242.78 374.154 241.905 373.943 241.067C373.372 238.8 372.793 236.809 372.288 234.67C371.833 232.753 371.441 230.716 371.127 228.251C371.056 227.703 370.99 227.134 370.926 226.54C370.723 224.657 370.33 223.193 369.854 221.893C369.1 219.845 368.152 218.203 367.245 215.953C366.59 214.343 365.984 212.505 365.314 209.896C365.179 209.377 365.048 208.846 364.914 208.282C364.811 207.849 364.703 207.435 364.591 207.038C364.298 205.994 363.979 205.07 363.645 204.239C363.239 203.228 362.81 202.356 362.364 201.572C361.836 200.646 361.284 199.843 360.706 199.079C360.101 198.279 359.467 197.521 358.797 196.706C358.198 195.978 357.572 195.209 356.906 194.316C356.865 194.268 356.832 194.304 357.065 194.663C353.407 194.948 366.956 197.032 364.658 193.235C364.866 192.426 364.804 192.517 364.842 192.444C364.858 192.423 364.873 192.471 364.891 192.537C364.909 192.604 364.928 192.694 364.949 192.811C364.967 192.915 364.994 193.092 365.008 193.382C365.079 193.981 365.141 194.625 365.188 195.316C365.231 195.93 365.262 196.584 365.276 197.284C365.276 197.288 365.276 197.292 365.276 197.296C365.289 197.945 365.289 198.609 365.275 199.287C365.261 199.953 365.234 200.632 365.19 201.322C365.146 202.001 365.087 202.69 365.01 203.386C364.936 204.06 364.836 204.804 364.727 205.47C364.568 206.452 364.354 207.531 364.128 208.504C363.898 209.501 363.642 210.478 363.371 211.431C363.096 212.4 362.807 213.344 362.514 214.261C362.212 215.207 361.906 216.124 361.607 217.011C361.293 217.942 360.987 218.839 360.699 219.7C360.388 220.631 360.104 221.497 359.842 222.348C359.658 222.925 359.43 223.995 359.263 224.799C359.065 225.77 358.903 226.687 358.791 227.479C358.789 227.499 358.786 227.518 358.783 227.538C358.66 228.418 358.535 229.346 358.407 230.311C358.289 231.205 358.167 232.135 358.041 233.089C357.923 233.989 357.8 234.921 357.672 235.871C356.047 237.95 361.573 234.469 352.78 242.173C350.856 241.537 350.716 241.242 350.178 240.845C349.756 240.475 349.487 240.149 349.269 239.864C349.055 239.581 348.896 239.334 348.76 239.113C348.626 238.893 348.516 238.698 348.423 238.528C348.33 238.36 348.252 238.215 348.197 238.118C348.13 237.997 348.142 238.027 348.182 238.083C347.904 237.695 347.566 237.172 347.312 236.739C347.047 236.29 346.804 235.836 346.58 235.385C346.359 234.939 346.156 234.496 345.968 234.06C345.781 233.629 345.608 233.204 345.445 232.79C345.283 232.379 345.131 231.977 344.983 231.587C344.834 231.193 344.7 230.835 344.554 230.455C344.296 229.795 344.033 229.059 343.801 228.338C343.64 227.84 343.483 227.337 343.329 226.83C342.97 225.652 342.629 224.45 342.304 223.23C341.991 222.057 341.693 220.867 341.409 219.668C341.132 218.501 340.867 217.325 340.611 216.147C340.36 214.989 340.118 213.829 339.88 212.675C339.644 211.527 339.415 210.4 339.184 209.266C339.105 208.888 339.028 208.579 338.922 208.167C338.82 207.773 338.706 207.357 338.588 206.922C338.471 206.487 338.349 206.033 338.231 205.559C338.112 205.084 337.997 204.588 337.893 204.068C337.789 203.544 337.698 202.996 337.633 202.412C337.57 201.864 337.524 201.107 337.547 200.527C337.595 199.596 337.656 199.649 337.685 199.439C337.721 199.288 337.754 199.167 337.787 199.047C337.82 198.929 337.852 198.818 337.886 198.707C337.919 198.595 337.953 198.487 337.99 198.37C338.035 198.233 338.046 198.19 338.153 197.878C352.628 201.451 343.078 199.573 345.579 200.205C345.467 200.588 345.353 200.968 345.237 201.346C344.436 203.953 343.546 206.856 342.633 209.821C341.64 213.043 340.619 216.34 339.654 219.42C338.506 223.083 337.439 226.439 336.595 228.994C336.41 229.554 336.236 230.075 336.074 230.552C334.83 234.222 334.148 236.244 333.571 238.573C333.177 240.166 332.831 241.903 332.388 244.408C332.175 245.617 331.878 246.969 331.513 248.381C330.806 251.106 329.842 254.051 328.712 256.616C327.85 258.575 327.427 257.987 327.658 255.864C327.995 252.76 328.829 250.343 328.534 248.632C328.473 248.28 328.417 247.949 328.366 247.634C327.924 244.891 327.925 243.386 329.455 240.036C329.83 239.214 330.06 238.463 330.197 237.768C330.682 235.307 330.012 233.546 330.595 231.803C331.007 230.569 331.505 230.103 332.2 227.946C332.759 226.208 333.449 223.372 334.317 218.154C334.323 218.122 334.328 218.089 334.334 218.055C334.96 214.278 335.515 211.053 336.007 208.268C336.736 204.137 337.326 200.979 337.805 198.415C340.48 198.941 330.486 196.567 345.732 200.456C345.782 200.312 345.74 200.458 345.734 200.501C345.719 200.57 345.704 200.644 345.689 200.716C345.674 200.791 345.66 200.864 345.648 200.93C345.636 200.996 345.626 201.059 345.623 201.092C345.615 201.066 345.637 201.309 345.678 200.527C345.702 200.848 345.735 200.983 345.793 201.309C345.794 201.314 345.795 201.319 345.796 201.324C345.851 201.603 345.918 201.938 346.003 202.331C346.077 202.672 346.164 203.058 346.265 203.485C346.357 203.874 346.459 204.298 346.568 204.76C346.671 205.191 346.779 205.655 346.888 206.16C346.986 206.62 347.103 207.202 347.184 207.73C347.351 208.854 347.515 210.047 347.684 211.238C347.845 212.377 348.013 213.531 348.201 214.674C348.387 215.811 348.593 216.937 348.83 218.028C349.074 219.156 349.352 220.246 349.669 221.268C349.712 221.408 349.755 221.545 349.8 221.682C350.066 222.498 350.366 223.408 350.713 224.372C351.064 225.345 351.422 226.274 351.887 227.338C352.061 227.735 352.24 228.16 352.405 228.555C352.569 228.946 352.728 229.33 352.886 229.702C353.041 230.069 353.195 230.424 353.35 230.765C353.504 231.102 353.658 231.426 353.816 231.733C353.973 232.039 354.133 232.33 354.299 232.605C354.479 232.901 354.601 233.089 354.813 233.386C355.042 233.708 355.217 234.022 355.311 234.188C355.416 234.377 355.494 234.522 355.56 234.642C355.626 234.761 355.68 234.853 355.717 234.913C355.755 234.973 355.778 235.002 355.763 234.98C355.746 234.958 355.696 234.881 355.523 234.726C355.456 234.628 354.777 234.196 354.432 234.134C344.637 239.498 351.256 234.438 349.66 234.628C349.796 233.664 349.926 232.723 350.043 231.835C350.175 230.843 350.294 229.9 350.394 229.036C350.517 227.972 350.613 227.021 350.671 226.218C350.672 226.209 350.673 226.201 350.673 226.192C350.753 225.075 350.863 224.161 350.997 223.392C351.213 222.18 351.434 221.444 351.844 220.365C352.256 219.501 352.726 218.741 353.259 217.738C353.593 217.107 353.955 216.371 354.346 215.436Z" fill="#BE1622"/>
<path d="M382.965 223.139C382.924 223.326 382.908 223.507 382.915 223.684C382.939 224.306 383.206 224.79 383.587 225.325C384.335 226.521 385.327 227.663 385.642 229.045C385.705 229.32 385.743 229.624 385.742 229.923C385.746 231.2 385.471 232.017 385.249 232.826C384.981 233.814 384.774 234.825 385.434 236.39C385.436 236.395 385.439 236.401 385.441 236.406C385.91 237.499 386.238 238.568 386.584 239.461C387.017 240.607 387.508 241.447 388.032 241.672C388.141 241.721 388.25 241.742 388.357 241.735C389.295 241.584 388.329 243.015 389.772 243.208C389.883 243.211 389.987 243.192 390.066 243.152C390.234 243.032 390.536 242.914 390.794 242.801C391.206 242.629 391.649 242.479 392.171 242.323C392.6 242.195 393.083 242.059 393.645 241.875C393.73 241.848 393.822 241.813 393.921 241.771C394.374 241.581 394.957 241.239 395.573 240.772C396.059 240.404 396.566 239.959 397.047 239.472C397.515 238.997 397.95 238.496 398.341 237.975C398.71 237.484 399.017 237.01 399.261 236.552C399.542 236.023 399.724 235.533 399.784 235.133C399.793 235.072 399.804 235.011 399.816 234.952C399.925 234.404 400.142 233.919 400.41 233.464C400.683 232.999 401.009 232.563 401.323 232.134C401.681 231.645 402.023 231.162 402.257 230.712C402.338 230.555 402.407 230.403 402.459 230.258C402.606 229.849 402.756 229.518 402.901 229.255C402.963 229.144 403.087 229.091 403.211 229.091C403.211 229.091 403.211 229.091 403.211 229.091C403.365 229.09 403.517 229.176 403.533 229.329C403.577 229.748 403.645 230.29 403.72 230.948C403.778 231.458 403.84 232.039 403.902 232.69C403.91 232.778 403.917 232.863 403.921 232.947C403.96 233.811 403.798 234.392 403.566 234.883C403.307 235.424 402.956 235.867 402.551 236.508C402.279 236.936 401.981 237.452 401.641 238.143C401.59 238.246 401.538 238.352 401.486 238.463C401.259 238.943 401.036 239.417 400.843 239.844C400.526 240.539 400.205 241.216 399.853 241.857C399.499 242.501 399.1 243.127 398.585 243.739C398.128 244.279 397.58 244.811 396.876 245.313C396.492 245.587 396.061 245.851 395.569 246.094C395.279 246.238 395.007 246.379 394.748 246.519C393.908 246.973 393.205 247.429 392.427 247.861C391.653 248.325 390.39 248.806 389.275 248.89C388.137 249.146 385.394 248.593 383.812 246.702C383.451 246.298 383.12 245.836 382.845 245.332C382.133 244.011 381.737 243.029 381.315 242.223C380.501 240.592 379.632 239.655 378.674 238.444C377.898 237.45 377.101 236.273 376.546 234.509C376.479 234.295 376.415 234.07 376.356 233.839C376.076 232.742 375.898 231.577 375.79 230.431C375.66 229.082 375.633 227.78 375.602 226.63C375.56 225.899 375.541 225.057 375.562 224.357C375.58 223.588 375.626 222.86 375.679 222.178C375.737 221.424 375.805 220.726 375.86 220.091C375.926 219.326 375.973 218.651 375.972 218.08C375.972 218 375.971 217.921 375.969 217.845C375.954 217.296 375.935 216.723 375.914 216.132C375.891 215.515 375.866 214.905 375.836 214.252C375.807 213.612 375.786 212.913 375.784 212.203C375.782 211.525 375.796 210.82 375.839 210.091C375.88 209.389 375.947 208.665 376.053 207.924C376.156 207.202 376.295 206.463 376.484 205.715C376.53 205.534 376.578 205.353 376.63 205.172C376.785 204.625 376.947 204.058 377.127 203.474C377.342 202.768 377.639 201.893 377.925 201.182C378.066 200.826 378.265 200.352 378.473 199.918C378.686 199.474 378.936 198.999 379.277 198.487C379.615 197.984 380.041 197.436 380.658 196.897C381.262 196.366 382.09 195.854 383.032 195.572C383.964 195.284 384.946 195.244 385.754 195.347C386.502 195.423 387.436 195.729 387.842 195.907C388.168 196.027 388.961 196.445 389.429 196.844C389.973 197.278 390.477 197.863 390.823 198.454C391.176 199.049 391.378 199.617 391.505 200.083C391.632 200.554 391.69 200.937 391.73 201.258C391.77 201.581 391.788 201.842 391.801 202.067C391.816 202.311 391.812 202.438 391.822 202.644C391.837 202.889 391.849 203.12 391.858 203.352C391.871 203.682 391.894 204.05 391.92 204.426C391.962 205.031 392.015 205.677 392.066 206.353C392.115 207.002 392.163 207.678 392.197 208.372C392.231 209.059 392.251 209.764 392.244 210.479C392.237 211.205 392.201 211.943 392.117 212.684C392.032 213.424 391.879 214.311 391.663 214.993C391.569 215.307 391.432 215.705 391.304 215.994C391.167 216.316 391.019 216.611 390.871 216.883C390.713 217.17 390.555 217.432 390.4 217.674C390.234 217.934 390.072 218.17 389.919 218.389C389.75 218.63 389.592 218.848 389.445 219.049C389.308 219.238 389.183 219.406 389.068 219.562C389.042 219.598 389.016 219.634 388.991 219.67C388.43 220.473 387.993 221.091 387.631 221.647C387.171 222.356 386.831 222.965 386.5 223.722C386.237 224.324 385.979 225.018 385.668 225.928C385.668 225.93 385.667 225.933 385.666 225.935C385.437 226.605 385.106 227.34 384.693 228.08C384.317 228.752 383.873 229.427 383.376 230.059C383.014 230.52 382.626 230.954 382.213 231.354C381.403 232.135 381.013 231.686 381.239 230.614C381.346 230.103 381.503 229.646 381.654 229.231C381.967 228.372 382.264 227.676 382.083 226.991C382.066 226.927 382.05 226.865 382.034 226.804C381.725 225.628 381.562 224.863 381.847 224.11C382.022 223.649 382.366 223.192 382.948 222.649C383.1 222.506 383.226 222.363 383.33 222.219C383.92 221.402 383.811 220.565 383.765 219.838C383.733 219.36 383.731 218.927 383.973 218.581C384.209 218.244 384.481 218.081 384.809 217.762C384.978 217.589 385.183 217.34 385.388 217.061C385.53 216.866 385.679 216.642 385.828 216.384C385.942 216.188 386.056 215.972 386.162 215.737C386.248 215.545 386.329 215.341 386.397 215.129C386.454 214.948 386.502 214.761 386.533 214.574C386.565 214.387 386.561 214.301 386.57 214.088C386.585 213.751 386.553 213.561 386.512 213.22C386.489 213.05 386.462 212.878 386.432 212.707C386.34 212.188 386.22 211.672 386.089 211.17C385.941 210.608 385.779 210.062 385.618 209.54C385.433 208.942 385.248 208.373 385.073 207.831C384.866 207.194 384.672 206.595 384.496 206.024C384.285 205.347 384.088 204.647 383.934 204.051C383.862 203.767 383.791 203.417 383.741 203.197C383.691 202.967 383.648 202.78 383.608 202.644C383.603 202.624 383.598 202.606 383.593 202.588C383.556 202.455 383.526 202.36 383.532 202.381C383.539 202.397 383.578 202.518 383.711 202.72C383.829 202.902 384.039 203.128 384.238 203.262C384.348 203.353 384.747 203.532 384.639 203.449C384.385 203.323 384.636 203.391 384.666 203.347C384.76 203.331 384.991 203.305 385.223 203.204C385.45 203.11 385.622 202.96 385.661 202.892C385.704 202.82 385.647 202.831 385.563 202.922C385.478 203.012 385.365 203.174 385.254 203.379C385.133 203.603 385.043 203.801 384.921 204.115C384.791 204.454 384.73 204.687 384.67 204.975C384.632 205.159 384.591 205.357 384.549 205.57C384.456 206.031 384.359 206.558 384.271 207.141C384.193 207.658 384.124 208.219 384.068 208.809C384.015 209.37 383.974 209.958 383.947 210.557C383.92 211.156 383.906 211.766 383.905 212.373C383.903 213.013 383.915 213.632 383.937 214.252C383.961 214.969 383.984 215.665 384.019 216.261C384.058 216.923 384.111 217.496 384.188 217.957C384.202 218.041 384.214 218.122 384.226 218.201C384.348 219.038 384.331 219.603 384.228 220.063C384.076 220.75 383.729 221.2 383.401 221.881C383.237 222.224 383.078 222.626 382.965 223.139Z" fill="#BE1622"/>
<path d="M418.342 195.008C418.473 194.718 418.574 194.427 418.647 194.134C418.82 193.449 418.844 192.789 418.8 192.084C418.765 191.402 418.689 190.684 418.605 189.988C418.525 189.314 418.443 188.637 418.395 187.959C418.351 187.332 418.336 186.704 418.379 186.078C418.417 185.519 418.502 184.961 418.65 184.398C418.653 184.388 418.655 184.379 418.658 184.369C418.822 183.746 418.984 183.233 419.145 182.777C419.352 182.161 419.555 181.766 419.741 181.221C419.741 181.221 419.741 181.221 419.741 181.221C419.769 181.338 419.817 181.474 419.84 181.397C419.867 181.361 419.888 181.286 419.906 181.197C419.924 181.108 419.939 181.003 419.951 180.882C419.963 180.762 419.973 180.626 419.981 180.451C419.993 180.26 419.988 180.107 420.023 179.599C416.262 180.455 428.59 173.629 426.435 177.095C427.217 178.014 427.18 178.305 427.304 178.574C427.383 178.823 427.425 179.014 427.464 179.193C427.499 179.363 427.528 179.518 427.555 179.667C427.58 179.809 427.604 179.944 427.628 180.074C427.65 180.196 427.672 180.315 427.691 180.412C427.7 180.486 427.748 180.626 427.655 180.41C427.792 180.781 427.951 181.156 428.155 181.578C428.266 181.807 428.389 182.046 428.524 182.295C428.6 182.435 428.675 182.576 428.75 182.718C428.95 183.101 429.144 183.489 429.331 183.879C429.52 184.274 429.702 184.673 429.879 185.072C430.058 185.479 430.231 185.887 430.398 186.293C430.569 186.711 430.737 187.134 430.894 187.541C431.826 189.941 432.422 192.199 433.09 193.51C433.18 193.688 433.272 193.851 433.368 193.998C434.661 196.036 432.972 196.817 434.048 199.756C434.066 199.807 434.085 199.858 434.105 199.911C434.961 202.212 435.212 203.934 435.207 205.842C435.203 206.511 435.166 207.204 435.103 207.955C435.027 208.867 435.022 210.349 435.044 212.043C435.071 213.964 435.13 216.159 435.251 218.122C435.363 219.927 435.532 221.538 435.818 222.559C435.965 223.08 436.05 223.617 436.089 224.156C436.125 224.654 436.124 225.152 436.097 225.652C436.069 226.158 436.015 226.662 435.946 227.156C435.874 227.673 435.785 228.181 435.694 228.666C435.594 229.2 435.491 229.708 435.404 230.18C435.325 230.609 435.259 231.002 435.22 231.359C435.208 231.479 435.194 231.582 435.179 231.693C435.108 232.202 435.012 232.628 434.909 232.959C434.79 233.349 434.323 233.283 434.272 232.895C434.228 232.559 434.166 232.168 434.083 231.737C433.995 231.285 433.883 230.785 433.743 230.243C433.621 229.774 433.477 229.276 433.308 228.752C433.272 228.642 433.235 228.53 433.197 228.416C433.053 227.989 432.945 227.608 432.864 227.259C432.732 226.692 432.674 226.21 432.655 225.755C432.634 225.246 432.662 224.766 432.693 224.241C432.754 223.2 432.824 221.964 432.492 219.878C432.402 219.322 432.304 218.794 432.201 218.286C431.773 216.183 431.267 214.428 430.915 212.446C430.64 210.917 430.46 209.254 430.416 207.175C430.412 206.978 430.403 206.786 430.39 206.6C430.214 204.167 429.371 202.722 428.566 201.043C427.886 199.645 427.243 198.088 426.789 195.609C426.682 195.033 426.582 194.406 426.487 193.717C426.277 192.193 425.933 191.023 425.481 190.008C425.48 190.007 425.481 190.007 425.481 190.007C425.293 189.587 425.097 189.208 424.889 188.849C424.66 188.452 424.419 188.086 424.169 187.739C423.9 187.366 423.621 187.015 423.331 186.669C423.039 186.318 422.736 185.973 422.424 185.614C422.128 185.272 421.823 184.919 421.512 184.537C421.231 184.193 420.936 183.808 420.649 183.41C420.408 182.891 420.366 182.78 420.284 182.617C420.214 182.475 420.154 182.358 420.097 182.251C420.042 182.147 419.99 182.053 419.941 181.971C419.894 181.892 419.85 181.823 419.813 181.78C419.779 181.741 419.746 181.717 419.755 181.787C419.822 181.881 419.64 181.941 420.517 182.968C417.36 187.038 433.401 178.677 428.469 179.904C428.487 179.485 428.481 179.511 428.496 179.496C428.507 179.502 428.525 179.559 428.547 179.634C428.568 179.709 428.592 179.804 428.618 179.92C428.643 180.034 428.671 180.167 428.701 180.347C428.724 180.477 428.775 180.861 428.779 181.221C428.79 181.399 428.798 181.588 428.802 181.792C428.814 182.407 428.797 182.996 428.759 183.579C428.708 184.339 428.619 185.092 428.501 185.829C428.385 186.552 428.243 187.26 428.084 187.95C427.927 188.633 427.755 189.298 427.577 189.943C427.398 190.59 427.215 191.217 427.034 191.824C426.849 192.448 426.676 193.016 426.503 193.613C426.299 194.333 426.072 195.092 425.848 195.787C425.613 196.522 425.373 197.233 425.134 197.917C424.879 198.646 424.627 199.345 424.386 200.008C424.12 200.74 423.868 201.429 423.641 202.071C423.374 202.822 423.142 203.51 422.957 204.126C422.908 204.289 422.863 204.447 422.821 204.599C422.68 205.113 422.535 205.646 422.386 206.193C422.258 206.677 422.155 207.128 422.032 207.681C421.918 208.193 421.802 208.739 421.674 209.319C421.551 209.873 421.418 210.457 421.262 211.07C421.111 211.661 420.939 212.278 420.73 212.923C420.526 213.549 420.287 214.199 419.987 214.874C419.717 215.491 419.292 216.301 418.902 216.895C407.934 219.463 413.742 216.702 411.82 217.022C411.528 216.703 411.311 216.437 411.097 216.169C410.89 215.907 410.696 215.652 410.509 215.397C410.324 215.146 410.144 214.894 409.969 214.643C409.795 214.394 409.623 214.141 409.456 213.89C409.284 213.633 409.131 213.396 408.948 213.11C408.817 212.902 408.676 212.672 408.533 212.427C408.355 212.121 408.197 211.838 408.035 211.541C407.755 211.025 407.486 210.503 407.229 209.979C406.978 209.469 406.738 208.957 406.507 208.448C406.28 207.95 406.061 207.454 405.847 206.964C405.636 206.483 405.43 206.007 405.226 205.539C405.022 205.074 404.827 204.633 404.622 204.18C404.34 203.555 404.045 202.866 403.78 202.216C403.513 201.561 403.257 200.902 403.014 200.24C402.772 199.581 402.543 198.92 402.327 198.258C402.111 197.596 401.908 196.933 401.719 196.273C401.529 195.609 401.353 194.947 401.191 194.288C401.028 193.625 400.878 192.957 400.746 192.305C400.688 192.024 400.658 191.846 400.617 191.633C400.58 191.43 400.541 191.23 400.504 191.041C400.486 190.949 400.468 190.859 400.45 190.773C400.431 190.68 400.412 190.59 400.393 190.504C400.358 190.343 400.321 190.194 400.298 190.09C400.281 189.993 400.254 189.923 400.357 190.028C400.452 189.983 400.696 190.874 402.684 191.021C402.763 191.033 403.347 190.931 403.478 190.848C403.701 190.755 403.864 190.644 403.98 190.546C404.095 190.447 404.167 190.36 404.217 190.286C404.266 190.212 404.295 190.151 404.316 190.093C404.338 190.035 404.351 189.981 404.366 189.913C404.368 189.889 404.421 189.662 404.407 189.631C404.286 190.056 404.182 190.433 404.077 190.869C403.975 191.289 403.879 191.721 403.789 192.161C403.698 192.6 403.613 193.047 403.53 193.501C403.446 193.956 403.366 194.416 403.285 194.881C403.204 195.35 403.123 195.822 403.039 196.295C402.955 196.772 402.866 197.266 402.774 197.737C402.429 199.493 402.102 201.165 401.803 202.667C401.494 204.224 401.215 205.595 400.98 206.676C400.909 207 400.842 207.308 400.779 207.601C400.321 209.726 400.052 211.087 399.896 212.553C399.761 213.827 399.711 215.18 399.704 217.186C399.703 217.31 399.702 217.437 399.699 217.566C399.669 219.051 399.496 220.796 399.173 222.553C398.926 223.897 398.591 225.248 398.165 226.494C397.646 228.011 397.132 227.615 397.001 226.034C396.884 224.631 396.988 223.398 396.958 222.37C396.939 221.703 396.863 221.123 396.634 220.638C395.973 219.24 395.546 218.299 395.491 217.216C395.449 216.392 395.622 215.485 396.072 214.232C396.336 213.494 396.425 212.844 396.417 212.256C396.393 210.532 395.53 209.341 395.798 208.063C395.868 207.726 395.966 207.461 396.077 207.183C396.409 206.357 396.855 205.431 397.077 202.226C397.16 201.035 397.213 199.526 397.224 197.592C397.225 197.455 397.226 197.32 397.227 197.186C397.229 196.713 397.225 196.27 397.221 195.814C397.217 195.339 397.212 194.869 397.209 194.406C397.205 193.917 397.204 193.434 397.207 192.959C397.21 192.454 397.218 191.958 397.233 191.47C397.249 190.949 397.274 190.438 397.308 189.938C397.343 189.413 397.399 188.845 397.454 188.363C397.495 188.05 397.641 187.528 397.75 187.249C397.876 186.912 398.023 186.605 398.195 186.31C398.371 186.008 398.574 185.718 398.815 185.436C399.063 185.147 399.352 184.865 399.704 184.601C400.064 184.332 400.493 184.08 400.995 183.892C401.408 183.709 402.329 183.554 402.684 183.573C405.454 183.783 406.034 185.187 406.437 185.53C406.85 186.073 407.05 186.452 407.237 186.802C407.424 187.165 407.566 187.48 407.691 187.775C407.823 188.086 407.935 188.373 408.036 188.648C408.143 188.937 408.239 189.214 408.325 189.475C408.416 189.746 408.508 190.046 408.569 190.225C408.569 190.225 408.569 190.225 408.569 190.225C408.713 190.667 408.847 191.072 408.977 191.458C409.044 191.654 409.11 191.866 409.175 192.09C409.338 192.643 409.501 193.274 409.671 193.96C409.816 194.545 409.967 195.17 410.128 195.82C410.276 196.415 410.433 197.03 410.603 197.656C410.765 198.251 410.94 198.854 411.129 199.458C411.318 200.057 411.506 200.614 411.732 201.217C411.915 201.702 412.102 202.197 412.283 202.662C412.468 203.136 412.653 203.594 412.842 204.032C413.037 204.482 413.235 204.909 413.441 205.309C413.518 205.458 413.596 205.604 413.674 205.745C413.807 205.983 413.946 206.23 414.091 206.482C414.296 206.838 414.514 207.204 414.748 207.571C414.975 207.926 415.16 208.198 415.434 208.575C415.568 208.758 415.738 208.986 415.901 209.202C416.059 209.413 416.224 209.63 416.387 209.843C416.547 210.052 416.71 210.261 416.871 210.464C417.03 210.665 417.189 210.861 417.341 211.043C417.49 211.22 417.64 211.391 417.739 211.494C416.227 212.157 422.368 210.086 412.068 212.52C412.294 212.15 412.394 211.944 412.579 211.533C412.743 211.157 412.898 210.741 413.041 210.301C413.188 209.85 413.323 209.374 413.45 208.886C413.582 208.376 413.705 207.853 413.823 207.328C413.951 206.764 414.073 206.199 414.196 205.639C414.328 205.03 414.484 204.356 414.62 203.798C414.76 203.209 414.872 202.68 414.954 202.218C414.984 202.043 415.015 201.877 415.047 201.717C415.214 200.872 415.393 200.227 415.588 199.699C415.883 198.903 416.218 198.372 416.597 197.84C416.965 197.322 417.375 196.803 417.814 196.04C417.986 195.739 418.163 195.4 418.342 195.008Z" fill="#BE1622"/>
<path d="M466.325 200.337C466.411 200.031 466.465 199.72 466.491 199.414C466.537 198.885 466.501 198.362 466.414 197.843C466.326 197.314 466.184 196.788 466.019 196.258C465.858 195.737 465.674 195.212 465.496 194.674C465.327 194.162 465.163 193.638 465.03 193.093C464.906 192.582 464.808 192.064 464.755 191.507C464.716 191.053 464.713 190.538 464.746 190.085C464.756 189.944 464.77 189.804 464.786 189.664C464.824 189.35 464.867 189.067 464.913 188.807C464.991 188.364 465.077 187.988 465.164 187.653C465.268 187.255 465.375 186.913 465.475 186.597C465.586 186.248 465.69 185.93 465.77 185.614C465.839 185.28 465.918 185.083 465.911 184.701C465.847 183.854 465.723 183.128 465.211 182.121C465.122 181.95 465.021 181.774 464.91 181.601C464.556 181.048 464.206 180.531 463.85 180.06C463.366 179.42 462.871 178.871 462.354 178.427C461.775 177.929 461.16 177.561 460.539 177.338C459.709 177.037 458.878 177.004 458.302 177.209C458.258 177.225 458.215 177.242 458.174 177.26C457.156 177.729 456.78 177.204 455.708 177.045C455.268 176.985 454.919 176.944 454.409 177.147C454.204 177.231 453.994 177.352 453.791 177.522C453.662 177.63 453.542 177.737 453.43 177.841C453.129 178.122 452.88 178.388 452.649 178.648C452.394 178.937 452.161 179.22 451.926 179.517C451.683 179.826 451.439 180.15 451.186 180.513C450.938 180.88 450.71 181.195 450.438 181.678C450.337 181.861 450.234 182.047 450.131 182.236C449.755 182.923 449.305 184.043 448.966 185.462C448.668 186.693 448.467 188.115 448.419 189.525C448.366 190.991 448.476 192.44 448.705 193.638C448.864 194.478 449.079 195.195 449.317 195.717C449.593 196.319 449.79 196.947 449.94 197.589C450.259 198.961 450.365 200.409 450.493 201.716C450.58 202.631 450.675 203.473 450.832 204.141C450.984 204.783 451.063 205.31 451.095 205.73C451.126 206.129 450.671 206.25 450.478 205.902C450.016 205.061 449.295 203.873 448.34 202.447C448.231 202.284 448.119 202.118 448.004 201.948C446.995 200.452 446.755 199.462 446.582 198.362C446.423 197.273 446.312 196.078 445.863 193.969C445.825 193.782 445.784 193.588 445.741 193.386C445.446 191.992 445.194 190.736 445.012 189.506C444.79 187.985 444.671 186.501 444.802 184.873C444.911 183.509 445.234 181.916 445.871 180.33C445.975 180.07 446.096 179.785 446.241 179.478C446.402 179.139 446.55 178.84 446.702 178.54C447.028 177.894 447.346 177.3 447.673 176.738C448.046 176.098 448.431 175.498 448.849 174.932C449.295 174.328 449.781 173.761 450.333 173.238C450.866 172.733 451.459 172.27 452.132 171.87C452.692 171.527 453.474 171.184 454.113 170.976C455.038 170.659 456.54 170.363 458.093 170.463C459.01 170.516 460.035 170.69 461.105 171.072C461.484 171.207 461.845 171.351 462.188 171.499C463.688 172.152 464.838 172.889 465.803 173.575C467.066 174.485 468.037 175.308 468.96 176.123C469.959 177.017 470.89 177.916 471.784 179.055C472.494 179.936 473.248 181.201 473.798 182.465C474 182.931 474.222 183.674 474.356 184.252C474.487 184.808 474.583 185.381 474.648 185.961C474.651 185.988 474.654 186.015 474.656 186.041C474.712 186.557 474.743 187.061 474.758 187.549C474.774 188.051 474.774 188.537 474.765 189.004C474.756 189.464 474.739 189.905 474.72 190.325C474.701 190.753 474.682 191.108 474.666 191.507C474.666 191.507 474.666 191.507 474.666 191.507C474.646 192.051 474.62 192.614 474.586 193.168C474.553 193.725 474.513 194.283 474.466 194.842C474.419 195.404 474.365 195.966 474.305 196.525C474.244 197.093 474.177 197.657 474.104 198.217C474.03 198.789 473.949 199.355 473.864 199.913C473.776 200.483 473.68 201.073 473.584 201.613C473.366 202.887 473.057 204.241 472.754 205.345C472.384 206.715 471.996 207.919 471.679 208.943C471.605 209.18 471.536 209.407 471.471 209.625C471.199 210.535 470.883 211.494 470.507 212.487C470.088 213.596 469.596 214.747 469.012 215.916C468.472 216.998 467.854 218.096 467.144 219.186C466.491 220.193 465.672 221.301 464.869 222.235C464.12 223.139 462.911 224.2 461.877 224.855C461.185 225.306 460.462 225.695 459.718 226.024C459.317 226.201 458.907 226.368 458.491 226.523C457.359 226.944 456.169 227.283 454.918 227.51C453.719 227.727 452.461 227.841 451.152 227.797C449.879 227.754 448.554 227.56 447.227 227.137C446.007 226.775 444.426 225.954 443.458 225.179C443.287 225.049 443.026 224.831 442.85 224.671C442.657 224.497 442.474 224.318 442.301 224.138C442.127 223.958 441.963 223.776 441.809 223.595C441.654 223.413 441.509 223.231 441.372 223.051C441.234 222.871 441.105 222.693 440.983 222.517C440.866 222.348 440.734 222.15 440.636 221.997C439.92 220.907 439.447 219.47 439.243 218.487C439.011 217.413 438.919 216.421 438.889 215.477C438.869 214.816 438.883 214.182 438.922 213.564C438.939 213.287 438.959 213.01 438.982 212.731C439.053 211.875 439.15 211.01 439.261 210.143C439.367 209.318 439.486 208.49 439.603 207.675C439.717 206.872 439.831 206.118 439.906 205.415C439.982 204.609 440.026 203.802 440.064 202.936C440.102 202.064 440.134 201.177 440.177 200.299C440.221 199.38 440.278 198.469 440.358 197.583C440.446 196.623 440.561 195.692 440.715 194.813C440.892 193.799 441.12 192.855 441.397 192.014C441.568 191.492 441.756 191.014 441.957 190.578C442.18 190.088 442.421 189.649 442.648 189.295C443.377 188.174 443.958 187.303 444.463 186.492C445.041 185.566 445.528 184.703 446.084 183.611C446.444 182.905 446.833 182.103 447.297 181.129C447.374 180.97 447.454 180.807 447.537 180.643C447.994 179.745 448.563 178.778 449.208 177.809C449.807 176.911 450.472 176.012 451.175 175.161C451.676 174.556 452.197 173.974 452.728 173.436C453.848 172.297 454.146 172.872 453.579 174.355C453.332 174.997 453.054 175.58 452.785 176.116C452.182 177.319 451.625 178.293 451.561 179.203C451.557 179.254 451.555 179.305 451.555 179.356C451.542 180.819 451.526 181.816 451.175 182.759C450.876 183.565 450.333 184.329 449.356 185.322C449.33 185.348 449.304 185.375 449.279 185.402C448.326 186.408 448.029 187.402 447.888 188.304C447.728 189.317 447.765 190.206 447.283 190.932C447.169 191.105 447.055 191.25 446.937 191.388C446.566 191.815 446.22 191.849 445.813 192.981C445.64 193.486 445.489 194.183 445.435 195.178C445.4 195.836 445.408 196.624 445.482 197.569C445.528 198.163 445.6 198.82 445.699 199.549C445.722 199.717 445.745 199.885 445.768 200.05C445.892 200.932 446.018 201.787 446.133 202.624C446.259 203.537 446.374 204.496 446.444 205.381C446.514 206.381 446.526 207.246 446.547 208.016C446.566 208.899 446.582 209.69 446.605 210.414C446.632 211.259 446.667 212.012 446.715 212.689C446.772 213.498 446.847 214.199 446.939 214.799C447.003 215.219 447.075 215.589 447.155 215.913C447.208 216.129 447.259 216.355 447.312 216.574C447.447 217.089 447.479 217.271 447.592 217.563C447.662 217.687 447.703 217.763 447.764 217.869C447.819 217.964 447.873 218.054 447.925 218.139C447.977 218.223 448.027 218.301 448.076 218.375C448.123 218.447 448.17 218.514 448.215 218.576C448.259 218.637 448.302 218.693 448.344 218.745C448.403 218.811 448.385 218.81 448.465 218.888C448.991 219.346 449.14 219.475 449.759 219.761C450.28 219.988 450.898 220.14 451.551 220.188C452.221 220.238 452.923 220.179 453.581 220.019C453.727 219.984 453.871 219.944 454.011 219.899C454.483 219.75 455.01 219.56 455.555 219.312C456.143 219.044 456.751 218.706 457.309 218.3C457.875 217.874 458.158 217.629 458.649 217.052C459.303 216.25 459.824 215.532 460.376 214.686C460.927 213.839 461.423 212.969 461.852 212.116C462.331 211.163 462.723 210.232 463.023 209.382C463.329 208.512 463.538 207.727 463.653 207.086C463.69 206.882 463.725 206.691 463.761 206.509C464.023 205.145 464.298 204.375 464.66 203.717C465.095 202.887 465.651 202.331 466.139 200.947C466.203 200.753 466.265 200.551 466.325 200.337Z" fill="#BE1622"/>
</svg>
